<svg width="300" height="300" viewBox="0 0 300 300" fill="none" xmlns="http://www.w3.org/2000/svg">
<path fill-rule="evenodd" clip-rule="evenodd" d="M56.2814 206.65C55.9187 206.346 56.4163 205.51 56.5259 205.198C60.0933 194.749 63.4667 183.279 69.6485 174.053C70.9473 172.121 72.9376 168.939 75.6701 169.031C86.4903 169.394 81.3965 200.227 98.3395 200.851C102.565 201.003 109.657 201.906 113.317 199.476C120.435 194.757 117.77 164.98 124.61 164.626C130.699 164.313 135.776 193.053 138.913 192.301C141.629 191.651 152.078 170.551 154.178 167.386C161.684 156.075 170.21 146.15 182.262 139.532C196.464 131.734 212.791 129.379 228.79 130.704C236.43 131.337 250.396 137.313 257.582 133.565C266.403 128.974 253.12 75.7996 251.771 66.7094C249.865 53.8632 248.288 40.6541 248.929 27.6476C249.359 18.7684 253.534 -10.8318 267.989 4.17508C290.27 27.3016 283.355 86.8058 281.617 116.398C280.656 132.789 279.02 149.391 279.576 165.824C280.479 193.019 292.556 219.53 272.281 243.188C241.204 279.448 174.056 282.562 129.965 291.821C117.172 294.514 89.1722 303.401 77.2134 296.32C70.5931 292.412 79.8363 286.487 83.1254 284.579C83.2519 284.503 83.9012 284.191 83.4205 284.098C72.128 281.895 12.5871 286.267 10.1245 273.961C7.71254 261.926 41.1094 265.622 43.4792 259.984C44.8792 256.659 41.6154 250.067 41.2275 246.649C39.6757 232.764 44.8623 213.183 56.8295 204.675" fill="black"/>
<path fill-rule="evenodd" clip-rule="evenodd" d="M69.6431 217.1C59.6079 218.554 52.2135 235.924 64.174 241.684C76.0067 247.387 84.5085 233.332 79.5676 222.966C78.4516 220.626 75.2315 216.288 69.6431 217.1Z" fill="white"/>
<path fill-rule="evenodd" clip-rule="evenodd" d="M69.1207 219.088C60.3961 220.379 53.9692 235.742 64.37 240.838C74.6645 245.877 82.0481 233.447 77.7553 224.275C76.7823 222.208 73.9858 218.37 69.1207 219.088Z" fill="black"/>
<path fill-rule="evenodd" clip-rule="evenodd" d="M125.454 222.097C118.532 216.077 111.791 220.272 108.662 222.667C96.5414 231.965 101.498 255.549 119.161 247.266C123.877 245.053 127.54 240.71 128.67 235.706C129.687 231.164 128.282 225.772 125.454 222.097Z" fill="white"/>
<path fill-rule="evenodd" clip-rule="evenodd" d="M123.848 223.893C117.692 218.271 111.704 222.185 108.922 224.427C98.1481 233.097 102.554 255.114 118.25 247.381C122.444 245.314 125.7 241.26 126.706 236.592C127.611 232.353 126.36 227.317 123.848 223.893Z" fill="black"/>
<path fill-rule="evenodd" clip-rule="evenodd" d="M129.238 256.995C134.898 256.537 140.782 255.34 146.492 254.468C147.286 254.345 147.957 253.693 147.998 253.024C148.039 252.346 147.427 251.897 146.633 252.02C140.997 252.883 135.205 254.072 129.627 254.521C128.841 254.582 128.121 255.19 128.014 255.868C127.906 256.555 128.452 257.057 129.238 256.995Z" fill="white"/>
<path fill-rule="evenodd" clip-rule="evenodd" d="M129.649 261.33C129.32 261.085 128.814 260.958 128.3 261.012C127.794 261.067 127.499 261.239 127.314 261.411C127.103 261.592 126.985 261.819 127.002 262.082C127.01 262.2 127.044 262.553 127.592 262.87C128.123 263.179 131.765 264.62 132.287 264.783C136.814 266.169 141.316 267.61 145.894 268.915C146.661 269.142 147.555 268.897 147.883 268.372C148.204 267.846 147.841 267.239 147.074 267.012C142.513 265.707 138.037 264.284 133.535 262.898C133.139 262.78 130.188 261.556 129.649 261.33ZM129.691 262.698C129.48 262.861 129.185 262.988 128.848 263.043C129.252 262.979 129.514 262.843 129.691 262.698Z" fill="white"/>
<path fill-rule="evenodd" clip-rule="evenodd" d="M48.6294 244.981C47.8704 244.264 46.4705 243.685 44.7418 243.279C41.4445 242.51 36.8232 242.285 34.774 242.017C33.9475 241.905 33.1633 242.354 33.0199 243.02C32.885 243.685 33.45 244.316 34.2764 244.428C35.9883 244.662 39.5386 244.843 42.5492 245.362C44.1852 245.647 45.6694 245.958 46.3356 246.58C46.8837 247.09 47.8451 247.142 48.4776 246.701C49.11 246.26 49.1775 245.491 48.6294 244.981Z" fill="white"/>
<path fill-rule="evenodd" clip-rule="evenodd" d="M51.4482 252.795C51.9582 253.038 52.7103 253.074 53.2982 252.853C54.0157 252.581 54.2146 252.023 53.7477 251.609C53.5835 251.466 53.255 251.273 52.6671 251.137C52.1657 251.016 51.2666 250.894 50.0909 250.794C44.2124 250.279 30.4756 249.986 28.5305 250C27.6746 250.008 26.983 250.415 27.0003 250.908C27.009 251.409 27.7178 251.802 28.5737 251.795C30.4756 251.78 43.8839 252.066 49.6154 252.567C50.4021 252.638 51.2234 252.76 51.4482 252.795Z" fill="white"/>
</svg>
