<svg width="300" height="300" viewBox="0 0 300 300" fill="none" xmlns="http://www.w3.org/2000/svg">
<mask id="mask0_113_43578" style="mask-type:luminance" maskUnits="userSpaceOnUse" x="0" y="69" width="300" height="151">
<path d="M0 69H300V219.591H0V69Z" fill="white"/>
</mask>
<g mask="url(#mask0_113_43578)">
<path d="M298.26 148.26C296.112 135.822 289.746 124.426 287.593 111.947C286.442 106.092 286.452 100.107 287.013 94.1842C287.462 87.4191 288.201 77.908 283.561 72.4433C281.608 70.1641 278.504 69.0041 275.54 69.5161C266.383 71.1655 263.501 80.8714 262.676 88.9733C261.231 101.847 265.757 111.67 270.801 123.094C273.941 130.307 277.851 137.172 280.615 144.554C282.274 148.881 283.61 153.412 284.422 157.989C284.983 161.188 285.5 164.432 285.355 167.695C285.092 171.954 283.66 176.349 281.168 179.879C277.955 162.352 264.674 148.011 248.253 141.676C247.134 141.142 246.015 140.639 244.895 140.172C248.004 137.421 248.711 132.537 249.055 128.137C249.404 124.235 249.273 120.262 250.233 116.442C250.6 114.783 251.615 113.329 251.774 111.62C252.01 106.618 247.148 105.807 244.347 109.377C241.257 112.844 240.835 117.321 240.378 121.739C240.047 123.746 239.82 128.776 237.428 129.274C235.937 129.125 234.918 127.797 233.885 126.841C230.164 122.84 224.188 120.823 218.936 122.736C213.761 124.874 210.15 130.067 208.446 135.301C189.809 137.349 171.458 145.052 152.716 151.464C144.329 154.423 136.064 157.608 127.781 160.744C127.799 160.635 127.817 160.526 127.835 160.413C128.234 157.98 129.1 155.424 130.468 153.317C132.036 150.644 134.7 148.817 136.218 146.121C138.348 141.871 136.041 138.563 131.311 139.818C126.843 140.811 123.105 144.155 120.667 147.952C119.095 150.503 118.075 153.312 116.797 156.022C114.681 160.667 112.116 164.486 108.795 167.69C106.887 168.352 104.98 168.995 103.058 169.625C98.994 171.011 94.934 171.968 90.7154 172.847C86.7732 170.132 82.5184 167.862 78.0007 166.29C67.5109 162.674 55.7886 163.68 45.4664 168.048C43.9847 167.219 42.4939 166.412 40.9986 165.61C37.2512 163.585 33.5492 161.469 29.8834 159.289C28.9002 158.714 27.9124 158.134 26.9064 157.59C26.4624 157.386 26.0047 157.042 25.4972 157.128C24.2602 157.486 25.2616 158.845 25.5742 159.575C26.3899 161.278 27.2417 162.969 28.0891 164.654C29.8699 168.166 31.5691 171.723 33.4813 175.162C30.0103 177.94 26.9291 181.171 24.4233 184.768C22.3888 187.7 19.9781 192.249 18.2925 197.071C14.7853 197.66 11.2736 198.24 7.76192 198.829C5.51442 199.268 3.1627 199.404 1.00583 200.197C0.498333 200.401 0.0905212 200.968 0.289896 201.52C0.548177 202.168 1.23693 202.481 1.77614 202.857C4.19583 204.343 6.72426 205.644 9.24816 206.944C11.5591 208.136 13.9289 209.26 16.3758 210.161C16.3939 210.279 16.4121 210.397 16.4302 210.51C16.8108 220.311 27.2009 219.301 34.5552 218.467C35.4206 218.381 36.2861 218.3 37.1516 218.218C107.422 216.673 177.724 216.659 248.013 215.821C253.364 216.084 258.716 215.921 264.04 214.951C274.466 213.229 279.782 204.085 281.372 194.261C283.407 193.128 285.292 191.733 287.004 190.151C291.386 186.164 294.757 181.089 296.651 175.466C299.474 166.739 299.909 157.264 298.26 148.26Z" fill="black"/>
</g>
<path d="M233.365 198.992C232.465 199.122 232.601 197.641 232.382 197.064C232.013 195.27 231.719 193.427 231.513 191.616C230.784 185.702 230.587 179.578 232.597 173.902C233.04 172.609 233.624 171.348 234.361 170.202C236.248 167.358 239.583 165.354 242.992 165.474C244.405 165.519 245.871 165.877 247.139 166.476C247.723 166.731 248.254 167.018 248.851 167.205C250.628 167.836 252.186 166.333 252.787 164.736C253.629 162.764 253.572 160.576 253.88 158.483C254.077 157.123 254.38 155.745 255.165 154.595C256.798 152.211 260.085 151.156 262.564 152.784C264.6 153.983 265.982 157.262 264.131 159.189C263.898 159.422 263.551 159.485 263.332 159.731C262.735 160.648 262.494 161.712 262.305 162.746C261.62 167.371 263.393 172.09 262.187 176.671C261.849 177.986 261.217 179.296 260.159 180.16C258.865 181.215 257.052 181.381 255.499 180.92C255.332 180.871 255.192 180.786 255.095 180.634C254.766 180.16 255.236 179.466 255.784 179.614C257.223 180.057 258.961 179.847 259.909 178.549C262.981 174.054 259.804 167.044 261.12 161.784C261.471 160.554 261.765 158.997 262.968 158.357C264.188 157.821 263.7 155.835 263.033 154.998C261.208 152.413 257.658 153.016 256.091 155.553C254.955 157.579 255.117 160.008 254.77 162.245C254.415 165.783 252.05 169.948 248.034 168.351C246.406 167.59 244.704 166.834 242.896 166.843C240.201 166.807 237.617 168.297 235.923 170.381C231.763 176.478 231.982 184.383 232.75 191.45C232.952 193.262 233.233 195.06 233.584 196.845C233.628 197.516 234.242 198.741 233.365 198.992Z" fill="white"/>
<path d="M138.169 191.213C137.662 190.853 137.975 190.35 138.278 189.982C139.008 188.932 139.71 187.864 140.385 186.785C142.293 183.604 144.079 180.243 146.639 177.502C148.411 175.493 150.618 173.899 152.884 172.396C154.289 171.413 155.771 170.442 156.777 169.077C157.642 167.788 158.136 165.687 156.482 164.75C154.162 163.745 151.443 164.587 149.173 165.302C145.076 166.675 141.346 168.73 138.106 171.404C136.162 172.936 134.639 174.819 133.13 176.707C130.479 179.98 127.805 183.273 124.869 186.312C123.455 187.743 121.955 189.103 120.405 190.405C119.548 191.12 118.692 191.84 117.781 192.502C117.441 192.736 117.065 193.012 116.616 193C115.841 192.962 115.755 191.907 116.598 191.891C122.036 187.977 126.455 183.077 130.502 177.962C132.188 175.895 133.733 173.706 135.654 171.814C137.136 170.425 138.736 169.174 140.463 168.052C144.102 165.708 149.336 163.264 153.795 163.021C158.195 162.712 160.23 165.809 158.227 169.383C156.301 172.379 152.635 173.844 149.952 176.167C148.121 177.715 146.576 179.519 145.239 181.44C143.766 183.562 142.588 185.839 141.206 188.011C140.54 189.053 139.837 190.074 139.117 191.083C138.917 191.372 138.45 191.409 138.169 191.213Z" fill="white"/>
<path d="M48 207C47.934 207.309 47.8255 207.603 47.6792 207.89C47.5425 207.896 47.4009 207.902 47.2594 207.912C47.1179 207.918 46.9811 207.927 46.8396 207.937C46.6981 207.946 46.5566 207.953 46.4198 207.965C46.3066 207.975 46.1934 207.984 46.0849 207.994C46.0566 207.994 46.0283 207.997 46 208C46.0896 207.868 46.1651 207.732 46.2406 207.596C46.3208 207.426 46.3868 207.259 46.4481 207.085C46.533 207.076 46.6226 207.069 46.7075 207.066C46.75 207.063 46.7925 207.06 46.8396 207.057C46.8774 207.054 46.9151 207.05 46.9528 207.05C47.0425 207.044 47.1321 207.038 47.2217 207.035C47.3255 207.028 47.4245 207.022 47.5236 207.019C47.5896 207.016 47.6509 207.013 47.7123 207.009C47.8066 207.006 47.9057 207.003 48 207Z" fill="white"/>
<path d="M52.5038 207.234C53.0248 207.33 53.1881 208.132 52.7378 208.443C52.442 208.663 52.0491 208.486 51.7313 208.467C51.1264 208.395 50.526 208.352 49.9256 208.338C49.8418 208.333 49.7579 208.333 49.674 208.333C49.3032 208.328 48.9323 208.333 48.5615 208.347C48.3982 208.352 48.2348 208.362 48.0759 208.371C47.992 208.376 47.9125 208.381 47.8331 208.386C47.7006 208.395 47.5682 208.405 47.4402 208.419C47.3077 208.429 47.1753 208.443 47.0473 208.457C46.9148 208.472 46.7824 208.481 46.6544 208.5C46.5484 208.515 46.4424 208.529 46.3409 208.543C46.3144 208.543 46.2879 208.548 46.2614 208.553C46.1864 208.562 46.1113 208.577 46.0363 208.586C45.9657 208.596 45.8994 208.605 45.8288 208.62C45.661 208.648 45.4933 208.677 45.3255 208.706C45.2416 208.72 45.1578 208.739 45.0739 208.758C44.6722 208.835 44.2704 208.925 43.8687 209.026C43.7716 209.05 43.67 209.078 43.5685 209.102C43.4493 209.136 43.3301 209.169 43.2109 209.203C42.8224 209.312 42.4339 209.432 42.0542 209.561C42.0013 209.575 41.9483 209.599 41.8909 209.618C41.7849 209.652 41.679 209.69 41.5686 209.728C41.4494 209.771 41.3302 209.814 41.211 209.857C41.083 209.91 40.955 209.957 40.8314 210.005C40.6945 210.058 40.5665 210.11 40.4385 210.163C40.3237 210.206 40.2133 210.254 40.0985 210.306C39.9573 210.363 39.816 210.426 39.6747 210.488C39.5467 210.545 39.4231 210.602 39.2951 210.66C39.0478 210.774 38.805 210.894 38.5622 211.013C38.4342 211.08 38.3017 211.147 38.1737 211.214C38.0501 211.276 37.9265 211.343 37.8073 211.41C37.7764 211.424 37.7455 211.438 37.719 211.453C37.6263 211.505 37.5336 211.553 37.4409 211.61C37.3217 211.673 37.2113 211.735 37.0965 211.802C36.9773 211.868 36.8626 211.94 36.7434 212.007C36.6418 212.069 36.5403 212.126 36.4387 212.189C36.3151 212.265 36.1915 212.341 36.0723 212.418C36.0105 212.456 35.9487 212.494 35.8869 212.537C34.9951 213.125 34.1608 213.78 33.3749 214.434C33.1101 214.625 32.9246 214.974 32.5847 214.998C32.0461 215.046 31.8033 214.291 32.1874 213.913C32.311 213.794 32.4346 213.674 32.5582 213.56C32.598 213.522 32.6421 213.483 32.6818 213.445C32.8496 213.297 33.0218 213.149 33.1939 213.006C33.2513 212.958 33.3087 212.91 33.3661 212.862C33.4235 212.814 33.4809 212.767 33.5383 212.719C33.6751 212.614 33.812 212.504 33.9533 212.399C34.0283 212.341 34.099 212.289 34.174 212.232C34.5184 211.978 34.8715 211.73 35.2247 211.491C35.4278 211.357 35.6264 211.223 35.8339 211.094C36.0193 210.975 36.2048 210.865 36.3946 210.75C36.4299 210.731 36.4652 210.712 36.4961 210.693C36.5977 210.636 36.6948 210.578 36.7963 210.521C36.8052 210.516 36.814 210.512 36.8228 210.507C36.9553 210.43 37.0877 210.354 37.2246 210.282C37.6263 210.062 38.0369 209.847 38.4474 209.647C38.4827 209.633 38.5181 209.618 38.5534 209.599C38.6726 209.542 38.7962 209.484 38.9198 209.427C39.0522 209.365 39.1847 209.303 39.3171 209.246C39.3436 209.231 39.3701 209.222 39.401 209.207C39.529 209.15 39.6615 209.093 39.7895 209.04C39.9264 208.978 40.0632 208.921 40.2001 208.868C40.2133 208.859 40.2266 208.859 40.2442 208.849C40.3722 208.796 40.5003 208.749 40.6283 208.696C40.6459 208.691 40.6636 208.682 40.6857 208.677C40.8137 208.629 40.9461 208.577 41.0742 208.529C41.1051 208.519 41.1316 208.51 41.1581 208.5C41.2905 208.452 41.4229 208.405 41.5554 208.362C41.7055 208.309 41.8512 208.261 42.0013 208.209C42.1514 208.161 42.3015 208.113 42.4516 208.07C42.6017 208.022 42.7518 207.975 42.9019 207.932C43.052 207.889 43.2065 207.85 43.3566 207.807C43.4846 207.774 43.617 207.741 43.7451 207.712C43.851 207.683 43.9658 207.655 44.0762 207.631C44.1159 207.621 44.16 207.612 44.1998 207.602C44.3057 207.578 44.4117 207.549 44.5176 207.53C44.6633 207.497 44.8134 207.468 44.9591 207.44C45.0342 207.425 45.1136 207.411 45.1887 207.397C45.2372 207.387 45.2814 207.377 45.3344 207.368C45.4536 207.349 45.5728 207.33 45.6919 207.311C45.82 207.287 45.948 207.268 46.0804 207.248C46.2085 207.229 46.3409 207.21 46.4689 207.191C46.5396 207.182 46.6058 207.177 46.6764 207.167C46.7559 207.158 46.8398 207.148 46.9192 207.139C46.959 207.134 46.9987 207.129 47.0428 207.124C47.0782 207.124 47.1135 207.119 47.1488 207.115C47.2327 207.105 47.3166 207.1 47.4004 207.091C47.4976 207.081 47.5903 207.072 47.683 207.067C47.7448 207.062 47.8022 207.057 47.8596 207.053C47.9479 207.048 48.0406 207.043 48.1289 207.038C48.2701 207.029 48.4114 207.019 48.5571 207.014C48.6277 207.014 48.6939 207.01 48.7646 207.01C48.8573 207.005 48.9544 207.005 49.0515 207.005C49.1442 207 49.2369 207 49.3297 207C49.5239 207 49.7182 207 49.9124 207.01C50.0095 207.01 50.1066 207.014 50.1994 207.019C50.2965 207.019 50.3892 207.024 50.4819 207.029C50.579 207.033 50.6761 207.043 50.7777 207.048C50.8704 207.053 50.9631 207.062 51.0558 207.067C51.1529 207.076 51.25 207.086 51.3516 207.096C51.4399 207.1 51.5282 207.11 51.6165 207.119C51.9167 207.153 52.2125 207.191 52.5038 207.234Z" fill="white"/>
<path d="M59.2753 196.526C58.3291 196.73 57.369 196.854 56.4089 196.958C55.4627 197.148 54.665 196.688 55.1427 195.633C55.5694 194.76 56.8867 191.593 58.0462 192.044C59.0342 191.901 60.0453 193.744 60.6251 194.446C61.6083 195.785 60.4813 196.341 59.2753 196.526Z" fill="white"/>
<path d="M60.9882 208.739C61.068 208.982 60.7194 209.115 60.6438 208.868C60.5724 208.679 60.5052 208.496 60.438 208.307C60.3204 207.995 60.207 207.688 60.0894 207.38C59.9802 207.086 59.871 206.797 59.7619 206.503C59.7577 206.489 59.7493 206.471 59.7451 206.452C59.6653 206.237 59.5855 206.025 59.5057 205.805C59.4175 205.566 59.3335 205.328 59.2453 205.089C59.1655 204.772 58.9513 204.441 59.0101 204.111C59.0773 203.95 59.3083 203.968 59.3461 204.138C59.4427 204.432 59.5393 204.726 59.6401 205.015C59.6947 205.176 59.7535 205.332 59.8081 205.488C59.9256 205.81 60.0474 206.136 60.1692 206.462C60.3456 206.93 60.522 207.398 60.69 207.876C60.7362 208 60.7782 208.119 60.8244 208.248C60.8874 208.436 60.9378 208.587 60.9882 208.739Z" fill="white"/>
<path d="M64.6184 207.908C64.5184 207.776 64.4183 207.639 64.323 207.522C63.5226 206.478 62.7555 205.405 62.0218 204.312C61.9313 204.126 62.1409 203.931 62.3077 204.024C62.4077 204.077 62.4697 204.185 62.5364 204.278C63.3225 205.424 64.1515 206.542 64.9614 207.674C65.1139 207.893 64.7756 208.137 64.6184 207.908Z" fill="white"/>
<path d="M67.5797 205.947C66.0336 204.726 64.531 203.418 63.0012 202.229C62.974 201.916 63.4204 201.966 63.6055 202.129C64.8413 203.014 65.9465 204.036 67.1115 204.966C67.3837 205.189 67.645 205.407 67.9118 205.624C68.1622 205.802 67.8247 206.128 67.5797 205.947Z" fill="white"/>
<path d="M67.0103 191.9C66.9835 191.782 67.0124 191.65 67.0579 191.597C67.6676 190.775 68.2546 189.86 68.8622 189.029C68.9676 188.892 69.0586 189.283 68.9532 189.42C68.7217 189.762 68.4943 190.1 68.2628 190.437C67.9673 190.878 67.6697 191.303 67.3658 191.704C67.2604 191.782 67.0971 192.184 67.0103 191.9Z" fill="white"/>
<path d="M66.0653 189.985C65.7484 189.754 66.6817 188.722 66.8056 188.457C67.1282 187.986 67.4479 187.511 67.7792 187.052C67.8311 186.98 67.9146 186.984 67.9636 187.057C68.0154 187.138 68.0097 187.258 67.9607 187.335C67.6784 187.759 67.3961 188.183 67.1109 188.602C66.8171 189.043 66.5002 189.454 66.2179 189.917C66.1891 189.994 66.12 190.019 66.0653 189.985Z" fill="white"/>
<path d="M65.1006 188.982C64.7193 188.759 65.5365 187.729 65.65 187.406C65.9496 186.859 66.2719 186.302 66.5897 185.782C66.9438 185.198 67.2752 184.662 67.6248 184.089C67.7927 183.845 68.1241 184.153 67.9516 184.402C67.8654 184.546 67.7882 184.673 67.711 184.8C67.08 185.862 66.449 186.918 65.8406 188C65.6817 188.297 65.5047 188.589 65.3458 188.891C65.3004 188.992 65.1869 189.024 65.1006 188.982Z" fill="white"/>
<path d="M36.3971 206.888C35.0894 206.299 37.3817 205.534 37.9529 206.367C38.246 206.816 37.1036 207.197 36.3971 206.888Z" fill="white"/>
<path d="M44.0134 203.619C43.9505 203.352 44.1151 203.081 44.3814 203.013C44.6477 202.95 44.9188 203.115 44.9866 203.381C45.0495 203.648 44.8849 203.919 44.6186 203.987C44.3523 204.05 44.0812 203.885 44.0134 203.619Z" fill="white"/>
<path d="M51.6271 182.996C51.4934 183.025 51.3737 182.876 51.2435 182.82C50.8705 182.495 50.9514 181.308 51.3139 181.068C51.9368 180.594 52.3274 182.749 51.6271 182.996Z" fill="white"/>
<path d="M59.0148 176.62C58.9478 176.353 59.1152 176.077 59.3787 176.015C59.6464 175.948 59.9225 176.115 59.9852 176.382C60.0522 176.645 59.8848 176.92 59.6171 176.987C59.3536 177.049 59.0775 176.883 59.0148 176.62Z" fill="white"/>
<path d="M55.5 189C50.8142 189 47 184.964 47 180.002C47 175.041 50.8142 171 55.5 171C60.1858 171 64 175.036 64 180.002C64 184.964 60.1858 189 55.5 189ZM55.5 173.615C52.1731 173.615 49.4694 176.482 49.4694 180.002C49.4694 183.523 52.1731 186.39 55.5 186.39C58.8269 186.39 61.5306 183.523 61.5306 180.002C61.5306 176.482 58.8222 173.615 55.5 173.615Z" fill="white"/>
<path d="M35.6718 212C33.9756 210.371 33 208.031 33 205.588C33 200.851 36.5858 197 40.9978 197C45.4098 197 49 200.851 49 205.588C49 206.327 48.9121 207.061 48.7407 207.767L46.4996 207.141C46.6226 206.637 46.6842 206.115 46.6842 205.588C46.6842 202.221 44.1354 199.486 40.9978 199.486C37.8646 199.486 35.3115 202.226 35.3115 205.588C35.3115 207.325 36.0058 208.987 37.2142 210.145L35.6718 212Z" fill="white"/>
</svg>
