<svg width="300" height="300" viewBox="0 0 300 300" fill="none" xmlns="http://www.w3.org/2000/svg">
<mask id="mask0_113_43697" style="mask-type:luminance" maskUnits="userSpaceOnUse" x="44" y="24" width="237" height="253">
<path d="M44 24H281V276.354H44V24Z" fill="white"/>
</mask>
<g mask="url(#mask0_113_43697)">
<path fill-rule="evenodd" clip-rule="evenodd" d="M63.3759 93.4523C59.3466 91.0347 53.4016 93.4876 56.1514 98.5843C58.767 103.434 53.2108 102.048 51.9101 107.477C51.0477 111.089 53.8823 114.624 53.0623 118.441C51.7192 124.662 48.6442 130.26 47.4567 136.537C42.2398 164.241 48.6301 198.588 75.0043 213.433C92.1959 223.111 113.763 226.588 133.281 226.907C141.29 227.041 171.297 221.449 177.334 225.479C178.585 226.313 174.252 230.095 173.793 230.611C164.504 240.917 147.121 267.433 169.071 275.201C171.41 276.029 173.927 276.333 176.401 276.12C192.568 274.735 194.618 250.057 205.624 240.953C223.855 225.86 252.328 224.383 266.643 203.72C267.138 203.014 267.866 201.812 268.276 201.041C272.503 193.061 269.612 182.104 269.683 181.934C270.488 180.004 273.097 178.541 274.221 176.632C278.611 169.153 280.166 158.932 280.371 150.407C281 124.909 251.791 68.4919 234.161 50.5368C226.696 42.9306 217.578 37.1906 207.688 33.2745C156.997 13.1916 73.9298 30.256 64.4009 92.8726" fill="black"/>
</g>
<path fill-rule="evenodd" clip-rule="evenodd" d="M116.906 105.745C112.999 105.568 106.172 103.677 99.8472 111.561C90.5734 123.135 94.0475 147.843 115.133 149.359C141.707 151.272 140.941 108.373 116.906 105.745Z" fill="white"/>
<path fill-rule="evenodd" clip-rule="evenodd" d="M116.26 108.699C112.653 108.551 106.331 106.912 100.486 113.72C91.9043 123.721 95.1189 145.06 114.62 146.368C139.204 148.02 138.498 110.97 116.26 108.699Z" fill="black"/>
<path fill-rule="evenodd" clip-rule="evenodd" d="M189.052 106.95C159.296 93.7579 147.95 136.001 172.079 145.763C195.923 155.411 209.403 120.39 189.052 106.95Z" fill="white"/>
<path fill-rule="evenodd" clip-rule="evenodd" d="M188.798 110.597C161.277 99.2464 150.78 135.596 173.093 143.994C195.156 152.298 207.622 122.161 188.798 110.597Z" fill="black"/>
<path fill-rule="evenodd" clip-rule="evenodd" d="M88.7468 145.541C82.6283 145.08 76.4814 144.421 70.3486 144.421C69.6033 144.421 69 145.072 69 145.867C69 146.661 69.6033 147.305 70.3486 147.305C76.4246 147.305 82.5076 147.963 88.5552 148.417C89.3005 148.478 89.9464 147.872 89.9961 147.085C90.0529 146.291 89.485 145.594 88.7468 145.541Z" fill="white"/>
<path fill-rule="evenodd" clip-rule="evenodd" d="M93.573 160.424C85.0881 160.933 76.5044 162.36 68.1253 163.746C67.3918 163.866 66.898 164.559 67.0179 165.294C67.1378 166.029 67.829 166.524 68.5626 166.403C76.85 165.039 85.342 163.618 93.7353 163.117C94.4758 163.074 95.0401 162.431 94.9978 161.689C94.9555 160.947 94.3136 160.381 93.573 160.424Z" fill="white"/>
<path fill-rule="evenodd" clip-rule="evenodd" d="M201.045 147.025C201.461 147.016 202.644 147.007 202.774 147.007C209.689 146.797 216.648 146.879 223.549 147.417C224.302 147.481 224.948 146.751 224.998 145.793C225.041 144.835 224.467 144.014 223.714 143.95C216.734 143.403 209.703 143.32 202.709 143.521C202.537 143.53 201.289 143.457 200.607 143.567C200.198 143.631 199.89 143.786 199.718 143.923C199.158 144.352 198.993 144.972 199 145.556C199.022 146.514 199.646 147.272 200.399 147.253C200.636 147.244 200.851 147.162 201.045 147.025ZM201.733 145.565C201.733 145.702 201.712 145.839 201.683 145.976C201.719 145.839 201.733 145.702 201.733 145.565ZM201.733 145.556C201.733 145.529 201.733 145.492 201.733 145.465V145.556Z" fill="white"/>
<path fill-rule="evenodd" clip-rule="evenodd" d="M201.664 155.233C201.966 155.299 202.856 155.504 202.961 155.518C206.906 156.228 210.887 156.755 214.84 157.422C218.379 158.022 221.897 158.732 225.422 159.398C226.151 159.537 226.845 159.032 226.978 158.271C227.111 157.517 226.628 156.792 225.899 156.653C222.36 155.979 218.82 155.269 215.267 154.669C211.322 154.003 207.355 153.476 203.416 152.773C203.241 152.736 202.092 152.421 201.559 152.421C200.816 152.421 200.389 152.839 200.207 153.139C199.814 153.79 199.996 154.654 200.62 155.064C200.943 155.277 201.321 155.328 201.664 155.233Z" fill="white"/>
</svg>
