<svg width="300" height="300" viewBox="0 0 300 300" fill="none" xmlns="http://www.w3.org/2000/svg">
<path fill-rule="evenodd" clip-rule="evenodd" d="M68.5236 95.9971C68.5236 98.3016 68.2412 91.3811 68.4223 89.0839C68.7047 85.62 69.0668 82.1561 69.3855 78.6923C69.9142 73.0254 71.6741 40.6621 76.751 38.9374C82.5377 36.9736 95.994 65.6629 102.7 68.9311C103.787 69.4601 160.973 65.8948 169.446 65.8006C178.912 65.6919 190.536 26.9081 197.272 30.1981C202.088 32.546 199.691 63.4454 203.652 70.6196C211.032 83.975 235.207 91.9318 245.839 107.251C274.627 148.752 270.239 199.732 255.145 244.538C250.836 257.328 246.708 271.466 236.699 281.126C220.578 296.692 214.002 271.082 216.442 258.698C216.652 257.661 217.319 255.19 215.559 255.111C198.648 254.321 177.254 274.756 162.255 279.655C153.252 282.604 143.49 275.249 134.234 275.343C125.261 275.437 117.772 281.111 108.306 280.017C91.0619 278.024 93.5895 264.633 83.9137 255.785C73.195 245.987 59.5721 241.255 49.9542 229.675C16.4219 189.29 41.6037 130.092 71.7465 95.787" fill="black"/>
<path d="M68.5236 95.9971C68.5236 98.3016 68.2412 91.3811 68.4223 89.0839C68.7047 85.62 69.0668 82.1561 69.3855 78.6923C69.9142 73.0254 71.6741 40.6621 76.751 38.9374C82.5377 36.9736 95.994 65.6629 102.7 68.9311C103.787 69.4601 160.973 65.8948 169.446 65.8006C178.912 65.6919 190.536 26.9081 197.272 30.1981C202.088 32.546 199.691 63.4454 203.652 70.6196C211.032 83.975 235.207 91.9318 245.839 107.251C274.627 148.752 270.239 199.732 255.145 244.538C250.836 257.328 246.708 271.466 236.699 281.126C220.578 296.692 214.002 271.082 216.442 258.698C216.652 257.661 217.319 255.19 215.559 255.111C198.648 254.321 177.254 274.756 162.255 279.655C153.252 282.604 143.49 275.249 134.234 275.343C125.261 275.437 117.772 281.111 108.306 280.017C91.0619 278.024 93.5895 264.633 83.9137 255.785C73.195 245.987 59.5721 241.255 49.9542 229.675C16.4219 189.29 41.6037 130.092 71.7465 95.787" stroke="black" stroke-width="1.8484" stroke-miterlimit="1.5" stroke-linecap="round" stroke-linejoin="round"/>
<path fill-rule="evenodd" clip-rule="evenodd" d="M78.7247 135.996C78.3627 135.932 77.204 135.712 77.1026 135.691C68.5141 134.422 59.8386 133.6 51.1777 133.005C50.0625 132.927 49.0848 133.756 49.0052 134.855C48.9255 135.96 49.7728 136.917 50.8952 136.988C59.4476 137.583 68.0144 138.391 76.4943 139.646C76.6898 139.674 78.6161 140.057 79.1085 139.993C79.9268 139.908 80.3686 139.483 80.5931 139.178C81.2665 138.299 81.0855 137.045 80.1875 136.386C79.753 136.06 79.2244 135.939 78.7247 135.996Z" fill="white"/>
<path fill-rule="evenodd" clip-rule="evenodd" d="M75.9014 144.306L74.8198 144.718C67.5968 147.277 60.5045 150.159 53.3395 152.898C52.2797 153.304 51.7352 154.527 52.1272 155.615C52.5192 156.711 53.6952 157.274 54.7551 156.868C61.891 154.144 68.947 151.27 76.141 148.718C76.2208 148.696 77.6727 148.148 77.9558 147.975C79.0374 147.315 79.0157 146.302 78.9939 145.972C78.9213 144.808 77.9413 143.923 76.8161 144.005C76.4822 144.028 76.17 144.133 75.9014 144.306Z" fill="white"/>
<path fill-rule="evenodd" clip-rule="evenodd" d="M203.211 139.656C203.602 139.664 204.132 139.656 204.398 139.598C211.622 137.902 218.853 135.789 225.716 132.986C226.777 132.545 227.278 131.342 226.843 130.285C226.408 129.228 225.192 128.722 224.138 129.155C217.504 131.87 210.523 133.903 203.55 135.547C203.329 135.539 202.29 135.503 201.899 135.605C200.83 135.862 200.167 136.515 200.019 137.66C199.864 138.79 200.661 139.833 201.796 139.979C202.312 140.053 202.813 139.928 203.211 139.656ZM204.118 138.299C204.125 138.269 204.125 138.24 204.132 138.203L204.118 138.299Z" fill="white"/>
<path fill-rule="evenodd" clip-rule="evenodd" d="M197.843 149.309C199.854 150.633 203.281 151.48 207.117 151.969C212.302 152.621 218.239 152.699 221.703 152.992C222.85 153.084 223.878 152.347 223.99 151.337C224.102 150.326 223.253 149.427 222.098 149.329C218.686 149.048 212.831 148.977 207.721 148.331C204.696 147.947 201.947 147.412 200.361 146.369C199.437 145.756 198.118 145.926 197.418 146.734C196.725 147.549 196.912 148.696 197.843 149.309Z" fill="white"/>
<path fill-rule="evenodd" clip-rule="evenodd" d="M112.861 94.2425C101.097 90.505 91.6366 96.0351 88.5162 99.8162C80.8396 109.106 82.6095 136.872 96.4488 140.029C132.046 148.157 139.857 102.821 112.861 94.2425Z" fill="white"/>
<path fill-rule="evenodd" clip-rule="evenodd" d="M112.221 97.1109C100.714 93.7664 91.4697 98.7215 88.4125 102.11C80.9117 110.424 82.641 135.3 96.1686 138.13C130.973 145.414 138.62 104.794 112.221 97.1109Z" fill="black"/>
<path fill-rule="evenodd" clip-rule="evenodd" d="M163.093 95.887C158.868 99.1831 152.967 104.777 150.898 111.259C146.673 124.539 158.015 137.063 171.07 140.146C197.047 146.269 212.134 118.094 194.133 99.352C188.961 93.9636 170.523 90.0802 163.093 95.887Z" fill="white"/>
<path fill-rule="evenodd" clip-rule="evenodd" d="M164.083 97.6447C160.185 100.674 154.741 105.793 152.831 111.74C148.925 123.915 159.397 135.392 171.451 138.216C195.428 143.834 209.354 118.004 192.738 100.82C187.958 95.8918 170.941 92.3202 164.083 97.6447Z" fill="black"/>
</svg>
