<svg width="300" height="300" viewBox="0 0 300 300" fill="none" xmlns="http://www.w3.org/2000/svg">
<path d="M164.339 40.922C163.573 40.7866 162.849 40.9481 162.099 41.021C160.672 41.047 160.839 42.3699 161.547 43.2033C162.162 43.9585 162.599 45.0939 163.568 45.422C164.552 45.4741 165.219 44.4741 165.964 43.9585C168.839 41.6095 167.203 40.922 164.339 40.922Z" fill="white"/>
<path d="M178.87 53.9064C176.984 52.5366 175.177 51.0001 173.229 49.7241C173.109 49.672 173.037 49.5418 173.068 49.4116C173.115 49.2449 173.297 49.172 173.453 49.2293C175.516 50.4011 177.307 52.0366 179.229 53.422C179.542 53.6511 179.182 54.1407 178.87 53.9064Z" fill="white"/>
<path d="M147.729 50.3022C147.662 50.172 147.703 50.0001 147.839 49.9272C149.808 48.9689 151.953 48.3179 153.922 47.3804C154.146 47.146 154.532 47.4845 154.323 47.7397C153.891 48.1095 153.313 48.2658 152.808 48.5106C151.245 49.172 149.636 49.7501 148.073 50.422C147.948 50.4793 147.792 50.4168 147.729 50.3022Z" fill="white"/>
<path d="M149.922 52.8125C149.833 52.6927 149.859 52.5104 149.979 52.4219C150.776 51.8438 151.589 51.2917 152.391 50.7292C153.188 50.1719 154.011 49.6459 154.797 49.0781C154.906 49 155.063 49 155.162 49.1042C155.636 49.5834 153.24 50.7396 152.875 51.125C152 51.724 151.151 52.3334 150.287 52.8906C150.167 52.9636 150.005 52.9167 149.922 52.8125Z" fill="white"/>
<path d="M143.646 44.3283C138 44.3283 133.406 39.7345 133.406 34.0835C133.406 28.4325 138 23.8335 143.646 23.8335C149.286 23.8335 153.88 28.4325 153.88 34.0835C153.88 39.7345 149.286 44.3283 143.646 44.3283ZM143.646 26.797C139.635 26.797 136.37 30.0679 136.37 34.0835C136.37 38.0991 139.635 41.3647 143.646 41.3647C147.656 41.3647 150.917 38.0991 150.917 34.0835C150.917 30.0679 147.656 26.797 143.646 26.797Z" fill="white"/>
<path d="M185.432 48.7813C179.787 48.7813 175.198 44.1823 175.198 38.5313C175.198 32.8802 179.787 28.2812 185.432 28.2812C191.078 28.2812 195.667 32.8802 195.667 38.5313C195.667 44.1823 191.078 48.7813 185.432 48.7813ZM185.432 31.2448C181.422 31.2448 178.156 34.5156 178.156 38.5313C178.156 42.5469 181.422 45.8125 185.432 45.8125C189.443 45.8125 192.708 42.5469 192.708 38.5313C192.708 34.5156 189.443 31.2448 185.432 31.2448Z" fill="white"/>
<path d="M141.021 30.2501C141.021 30.5105 140.932 30.7292 140.75 30.9063C140.573 31.0886 140.354 31.1772 140.099 31.1772C139.844 31.1772 139.625 31.0886 139.443 30.9063C139.26 30.7292 139.172 30.5105 139.172 30.2501C139.172 29.9949 139.26 29.7761 139.443 29.599C139.625 29.4167 139.844 29.323 140.099 29.323C140.354 29.323 140.573 29.4167 140.75 29.599C140.932 29.7761 141.021 29.9949 141.021 30.2501Z" fill="white"/>
<path d="M147.094 38.7345C147.094 39.0886 146.807 39.3803 146.453 39.3803C146.094 39.3803 145.807 39.0886 145.807 38.7345C145.807 38.3803 146.094 38.0886 146.453 38.0886C146.807 38.0886 147.094 38.3803 147.094 38.7345Z" fill="white"/>
<path d="M183.323 34.4325C183.323 34.6877 183.234 34.9064 183.052 35.0887C182.87 35.2658 182.656 35.3595 182.396 35.3595C182.141 35.3595 181.922 35.2658 181.745 35.0887C181.562 34.9064 181.474 34.6877 181.474 34.4325C181.474 34.1772 181.562 33.9585 181.745 33.7762C181.922 33.5939 182.141 33.5054 182.396 33.5054C182.656 33.5054 182.87 33.5939 183.052 33.7762C183.234 33.9585 183.323 34.1772 183.323 34.4325Z" fill="white"/>
<path d="M189.391 42.9116C189.391 43.271 189.104 43.5575 188.75 43.5575C188.396 43.5575 188.104 43.271 188.104 42.9116C188.104 42.5575 188.396 42.271 188.75 42.271C189.104 42.271 189.391 42.5575 189.391 42.9116Z" fill="white"/>
<mask id="mask0_113_43536" style="mask-type:luminance" maskUnits="userSpaceOnUse" x="45" y="0" width="218" height="300">
<path d="M45 0H262.693V300H45V0Z" fill="white"/>
</mask>
<g mask="url(#mask0_113_43536)">
<path fill-rule="evenodd" clip-rule="evenodd" d="M90.3696 285.172C90.1099 290.009 90.4612 294.959 93.4299 295.794C98.0178 297.098 99.856 289.108 101.694 284.011C109.592 262.116 122.612 235.571 127.612 225.616C128.941 225.769 130.281 225.932 131.61 226.08L133.555 250.119C134.604 263.042 135.317 276.526 136.518 289.327C136.972 294.159 138.056 298.992 141.111 299.394C145.842 300.005 146.468 291.838 147.537 286.521C151.81 265.288 159.86 239.441 163.761 227.419C164.305 226.263 165.314 224.089 166.612 221.1C205.769 204.668 202.241 173.235 239.555 173.703C243.272 173.749 246.984 173.749 250.615 173.113C255.579 172.247 260.885 169.294 261.822 164.1C263.202 156.528 256.348 149.679 245.619 150.881C213.214 154.501 201.548 171.386 183.044 196.897C179.49 201.806 175.981 205.549 171.882 208.207C180.559 185.736 192.153 148.656 188.228 118.873C202.668 102.583 217.043 59.1435 221.152 39.407C210.877 40.9193 201.538 44.1782 192.25 48.7661C181.944 37.8132 163.908 29.279 148.887 28.2402C146.57 18.1581 143.199 8.88555 137.873 -0.0152588C125.413 15.3116 101.521 52.5901 97.2132 74.2922C88.0731 68.5026 78.8159 62.4635 69.7419 56.9642C65.5869 54.4487 61.0448 52.4323 58.9062 54.6422C55.5913 58.0589 61.7882 63.4361 65.429 67.4588C75.7199 78.8241 86.739 93.0919 94.9066 104.116L90.1863 101.178C79.1621 94.3139 67.8732 86.8389 56.8592 80.1684C52.7041 77.6529 48.162 75.6365 46.0234 77.8413C42.7085 81.2632 48.9055 86.6403 52.5463 90.663C66.483 106.061 81.7641 126.781 89.4836 137.535C83.1797 172.858 92.386 207.652 94.7232 221.4L94.8455 221.415L93.2007 245.923C92.33 258.852 91.0468 272.3 90.3492 285.142L90.3696 285.172Z" fill="black"/>
</g>
<path d="M141.55 66.3882C141.36 66.9854 141.114 67.5518 140.811 68.0975C140.508 68.6432 140.158 69.158 139.753 69.6317C139.352 70.1105 138.906 70.5429 138.418 70.9291C137.93 71.3203 137.411 71.655 136.857 71.9433C136.302 72.2265 135.722 72.4581 135.126 72.628C134.526 72.8031 133.915 72.9163 133.293 72.9678C132.672 73.0193 132.051 73.009 131.429 72.9369C130.813 72.87 130.202 72.7413 129.612 72.5508C129.016 72.3603 128.446 72.1132 127.902 71.8094C127.352 71.5108 126.844 71.1556 126.367 70.754C125.889 70.3525 125.458 69.9046 125.067 69.4206C124.682 68.9315 124.343 68.4115 124.056 67.8555C123.774 67.2995 123.542 66.7229 123.368 66.1257C123.198 65.5233 123.085 64.9158 123.034 64.2928C122.983 63.6699 122.988 63.0521 123.06 62.4291C123.132 61.8113 123.26 61.2038 123.45 60.6118C123.64 60.0146 123.886 59.4482 124.189 58.9025C124.487 58.3568 124.842 57.842 125.247 57.3683C125.648 56.8895 126.094 56.4571 126.582 56.0709C127.07 55.6797 127.589 55.345 128.143 55.0567C128.698 54.7735 129.273 54.5419 129.874 54.372C130.474 54.1969 131.085 54.0837 131.707 54.0322C132.328 53.9807 132.949 53.991 133.571 54.0631C134.187 54.13 134.798 54.2587 135.388 54.4492C135.984 54.6397 136.554 54.8868 137.098 55.1906C137.648 55.4892 138.156 55.8444 138.633 56.246C139.111 56.6475 139.542 57.0954 139.933 57.5794C140.318 58.0685 140.657 58.5885 140.944 59.1445C141.226 59.7005 141.458 60.2771 141.632 60.8743C141.802 61.4767 141.915 62.0842 141.966 62.7072C142.017 63.3301 142.012 63.9479 141.94 64.5709C141.868 65.1887 141.74 65.7962 141.55 66.3882Z" fill="white"/>
<path d="M136.784 64.8659C136.604 65.4374 136.319 65.9486 135.935 66.4048C135.55 66.8609 135.09 67.2268 134.56 67.4975C134.03 67.7732 133.47 67.9336 132.875 67.9837C132.28 68.0338 131.7 67.9687 131.131 67.7832C130.561 67.6028 130.051 67.3221 129.596 66.9361C129.136 66.5501 128.771 66.094 128.501 65.5627C128.226 65.0313 128.066 64.4699 128.016 63.8735C127.966 63.282 128.031 62.7005 128.211 62.1291C128.396 61.5627 128.676 61.0514 129.061 60.5953C129.446 60.1391 129.906 59.7732 130.436 59.5026C130.966 59.2269 131.531 59.0665 132.125 59.0163C132.715 58.9662 133.3 59.0314 133.865 59.2118C134.435 59.3923 134.95 59.678 135.405 60.064C135.86 60.4499 136.224 60.9061 136.499 61.4374C136.769 61.9687 136.934 62.5301 136.984 63.1216C137.034 63.7181 136.964 64.2995 136.784 64.8659Z" fill="black"/>
<path d="M184.552 86.391C184.362 86.9831 184.115 87.5546 183.812 88.1003C183.509 88.6461 183.16 89.1558 182.755 89.6346C182.354 90.1083 181.907 90.5408 181.42 90.9321C180.932 91.3182 180.408 91.658 179.859 91.9412C179.304 92.2295 178.724 92.4561 178.123 92.6311C177.527 92.8011 176.916 92.9143 176.295 92.9658C175.674 93.0173 175.053 93.0121 174.431 92.9401C173.81 92.868 173.204 92.7393 172.609 92.5488C172.018 92.3583 171.448 92.1163 170.899 91.8125C170.354 91.5087 169.846 91.1586 169.369 90.757C168.891 90.3554 168.46 89.9075 168.07 89.4184C167.679 88.9293 167.346 88.4092 167.058 87.8583C166.77 87.3023 166.545 86.7256 166.37 86.1232C166.201 85.526 166.088 84.9133 166.036 84.2955C165.98 83.6725 165.99 83.0495 166.062 82.4317C166.129 81.8138 166.262 81.2063 166.452 80.609C166.642 80.0169 166.889 79.4454 167.186 78.8997C167.489 78.3539 167.844 77.8442 168.244 77.3654C168.65 76.8917 169.091 76.4592 169.579 76.0679C170.067 75.6818 170.591 75.342 171.145 75.0588C171.7 74.7705 172.275 74.5439 172.876 74.3689C173.476 74.199 174.087 74.0857 174.709 74.0342C175.33 73.9827 175.951 73.9879 176.567 74.0599C177.189 74.132 177.794 74.2607 178.39 74.4512C178.986 74.6417 179.556 74.8837 180.1 75.1875C180.644 75.4913 181.158 75.8414 181.635 76.243C182.108 76.6497 182.544 77.0925 182.929 77.5816C183.319 78.0707 183.658 78.5908 183.941 79.1468C184.228 79.6977 184.459 80.2744 184.629 80.8768C184.803 81.474 184.916 82.0867 184.968 82.7097C185.019 83.3275 185.009 83.9505 184.942 84.5683C184.87 85.1913 184.742 85.7937 184.552 86.391Z" fill="white"/>
<path d="M179.789 84.8709C179.604 85.4373 179.324 85.9486 178.934 86.4047C178.549 86.8609 178.094 87.2268 177.564 87.4974C177.035 87.7731 176.47 87.9335 175.875 87.9837C175.28 88.0338 174.7 87.9686 174.13 87.7882C173.566 87.6077 173.051 87.322 172.596 86.936C172.141 86.5501 171.776 86.0939 171.501 85.5626C171.226 85.0313 171.066 84.4699 171.016 83.8784C170.966 83.2819 171.031 82.7005 171.216 82.1341C171.396 81.5626 171.681 81.0514 172.066 80.5952C172.451 80.1391 172.906 79.7732 173.436 79.5025C173.965 79.2268 174.53 79.0664 175.125 79.0163C175.72 78.9662 176.3 79.0313 176.87 79.2168C177.439 79.3972 177.949 79.6779 178.404 80.0639C178.859 80.4499 179.224 80.906 179.499 81.4373C179.774 81.9687 179.934 82.5301 179.984 83.1265C180.034 83.718 179.969 84.2995 179.789 84.8709Z" fill="black"/>
</svg>
