<svg width="300" height="300" viewBox="0 0 300 300" fill="none" xmlns="http://www.w3.org/2000/svg">
<g clip-path="url(#clip0_113_43611)">
<path d="M233.365 198.992C232.465 199.122 232.601 197.641 232.382 197.064C232.013 195.27 231.719 193.427 231.513 191.616C230.784 185.702 230.587 179.578 232.597 173.902C233.04 172.609 233.624 171.348 234.361 170.202C236.248 167.358 239.583 165.354 242.992 165.474C244.405 165.519 245.871 165.877 247.139 166.476C247.723 166.731 248.254 167.018 248.851 167.205C250.628 167.836 252.186 166.333 252.787 164.736C253.629 162.764 253.572 160.576 253.88 158.483C254.077 157.123 254.38 155.745 255.165 154.595C256.798 152.211 260.085 151.156 262.564 152.784C264.6 153.983 265.982 157.262 264.131 159.189C263.898 159.422 263.551 159.485 263.332 159.731C262.735 160.648 262.494 161.712 262.305 162.746C261.62 167.371 263.393 172.09 262.187 176.671C261.849 177.986 261.217 179.296 260.159 180.16C258.865 181.215 257.052 181.381 255.499 180.92C255.332 180.871 255.192 180.786 255.095 180.634C254.766 180.16 255.236 179.466 255.784 179.614C257.223 180.057 258.961 179.847 259.909 178.549C262.981 174.054 259.804 167.044 261.12 161.784C261.471 160.554 261.765 158.997 262.968 158.357C264.188 157.821 263.7 155.835 263.033 154.998C261.208 152.413 257.658 153.016 256.091 155.553C254.955 157.579 255.117 160.008 254.77 162.245C254.415 165.783 252.05 169.948 248.034 168.351C246.406 167.59 244.704 166.834 242.896 166.843C240.201 166.807 237.617 168.297 235.923 170.381C231.763 176.478 231.982 184.383 232.75 191.45C232.952 193.262 233.233 195.06 233.584 196.845C233.628 197.516 234.242 198.741 233.365 198.992Z" fill="white"/>
<path d="M138.169 191.213C137.662 190.853 137.975 190.35 138.278 189.982C139.008 188.932 139.71 187.864 140.385 186.785C142.293 183.604 144.079 180.243 146.639 177.502C148.411 175.493 150.618 173.899 152.884 172.396C154.289 171.413 155.771 170.442 156.777 169.077C157.642 167.788 158.136 165.687 156.482 164.75C154.162 163.745 151.443 164.587 149.173 165.302C145.076 166.675 141.346 168.73 138.106 171.404C136.162 172.936 134.639 174.819 133.13 176.707C130.479 179.98 127.805 183.273 124.869 186.312C123.455 187.743 121.955 189.103 120.405 190.405C119.548 191.12 118.692 191.84 117.781 192.502C117.441 192.736 117.065 193.012 116.616 193C115.841 192.962 115.755 191.907 116.598 191.891C122.036 187.977 126.455 183.077 130.502 177.962C132.188 175.895 133.733 173.706 135.654 171.814C137.136 170.425 138.736 169.174 140.463 168.052C144.102 165.708 149.336 163.264 153.795 163.021C158.195 162.712 160.23 165.809 158.227 169.383C156.301 172.379 152.635 173.844 149.952 176.167C148.121 177.715 146.576 179.519 145.239 181.44C143.766 183.562 142.588 185.839 141.206 188.011C140.54 189.053 139.837 190.074 139.117 191.083C138.917 191.372 138.45 191.409 138.169 191.213Z" fill="white"/>
<path d="M48 207C47.934 207.309 47.8255 207.603 47.6792 207.89C47.5425 207.896 47.4009 207.902 47.2594 207.912C47.1179 207.918 46.9811 207.927 46.8396 207.937C46.6981 207.946 46.5566 207.953 46.4198 207.965C46.3066 207.975 46.1934 207.984 46.0849 207.994C46.0566 207.994 46.0283 207.997 46 208C46.0896 207.868 46.1651 207.732 46.2406 207.596C46.3208 207.426 46.3868 207.259 46.4481 207.085C46.533 207.076 46.6226 207.069 46.7075 207.066C46.75 207.063 46.7925 207.06 46.8396 207.057C46.8774 207.054 46.9151 207.05 46.9528 207.05C47.0425 207.044 47.1321 207.038 47.2217 207.035C47.3255 207.028 47.4245 207.022 47.5236 207.019C47.5896 207.016 47.6509 207.013 47.7123 207.009C47.8066 207.006 47.9057 207.003 48 207Z" fill="white"/>
<path d="M52.5038 207.234C53.0248 207.33 53.1881 208.132 52.7378 208.443C52.442 208.663 52.0491 208.486 51.7313 208.467C51.1264 208.395 50.526 208.352 49.9256 208.338C49.8418 208.333 49.7579 208.333 49.674 208.333C49.3032 208.328 48.9323 208.333 48.5615 208.347C48.3982 208.352 48.2348 208.362 48.0759 208.371C47.992 208.376 47.9125 208.381 47.8331 208.386C47.7006 208.395 47.5682 208.405 47.4402 208.419C47.3077 208.429 47.1753 208.443 47.0473 208.457C46.9148 208.472 46.7824 208.481 46.6544 208.5C46.5484 208.515 46.4424 208.529 46.3409 208.543C46.3144 208.543 46.2879 208.548 46.2614 208.553C46.1864 208.562 46.1113 208.577 46.0363 208.586C45.9657 208.596 45.8994 208.605 45.8288 208.62C45.661 208.648 45.4933 208.677 45.3255 208.706C45.2416 208.72 45.1578 208.739 45.0739 208.758C44.6722 208.835 44.2704 208.925 43.8687 209.026C43.7716 209.05 43.67 209.078 43.5685 209.102C43.4493 209.136 43.3301 209.169 43.2109 209.203C42.8224 209.312 42.4339 209.432 42.0542 209.561C42.0013 209.575 41.9483 209.599 41.8909 209.618C41.7849 209.652 41.679 209.69 41.5686 209.728C41.4494 209.771 41.3302 209.814 41.211 209.857C41.083 209.91 40.955 209.957 40.8314 210.005C40.6945 210.058 40.5665 210.11 40.4385 210.163C40.3237 210.206 40.2133 210.254 40.0985 210.306C39.9573 210.363 39.816 210.426 39.6747 210.488C39.5467 210.545 39.4231 210.602 39.2951 210.66C39.0478 210.774 38.805 210.894 38.5622 211.013C38.4342 211.08 38.3017 211.147 38.1737 211.214C38.0501 211.276 37.9265 211.343 37.8073 211.41C37.7764 211.424 37.7455 211.438 37.719 211.453C37.6263 211.505 37.5336 211.553 37.4409 211.61C37.3217 211.673 37.2113 211.735 37.0965 211.802C36.9773 211.868 36.8626 211.94 36.7434 212.007C36.6418 212.069 36.5403 212.126 36.4387 212.189C36.3151 212.265 36.1915 212.341 36.0723 212.418C36.0105 212.456 35.9487 212.494 35.8869 212.537C34.9951 213.125 34.1608 213.78 33.3749 214.434C33.1101 214.625 32.9246 214.974 32.5847 214.998C32.0461 215.046 31.8033 214.291 32.1874 213.913C32.311 213.794 32.4346 213.674 32.5582 213.56C32.598 213.522 32.6421 213.483 32.6818 213.445C32.8496 213.297 33.0218 213.149 33.1939 213.006C33.2513 212.958 33.3087 212.91 33.3661 212.862C33.4235 212.814 33.4809 212.767 33.5383 212.719C33.6751 212.614 33.812 212.504 33.9533 212.399C34.0283 212.341 34.099 212.289 34.174 212.232C34.5184 211.978 34.8715 211.73 35.2247 211.491C35.4278 211.357 35.6264 211.223 35.8339 211.094C36.0193 210.975 36.2048 210.865 36.3946 210.75C36.4299 210.731 36.4652 210.712 36.4961 210.693C36.5977 210.636 36.6948 210.578 36.7963 210.521C36.8052 210.516 36.814 210.512 36.8228 210.507C36.9553 210.43 37.0877 210.354 37.2246 210.282C37.6263 210.062 38.0369 209.847 38.4474 209.647C38.4827 209.633 38.5181 209.618 38.5534 209.599C38.6726 209.542 38.7962 209.484 38.9198 209.427C39.0522 209.365 39.1847 209.303 39.3171 209.246C39.3436 209.231 39.3701 209.222 39.401 209.207C39.529 209.15 39.6615 209.093 39.7895 209.04C39.9264 208.978 40.0632 208.921 40.2001 208.868C40.2133 208.859 40.2266 208.859 40.2442 208.849C40.3722 208.796 40.5003 208.749 40.6283 208.696C40.6459 208.691 40.6636 208.682 40.6857 208.677C40.8137 208.629 40.9461 208.577 41.0742 208.529C41.1051 208.519 41.1316 208.51 41.1581 208.5C41.2905 208.452 41.4229 208.405 41.5554 208.362C41.7055 208.309 41.8512 208.261 42.0013 208.209C42.1514 208.161 42.3015 208.113 42.4516 208.07C42.6017 208.022 42.7518 207.975 42.9019 207.932C43.052 207.889 43.2065 207.85 43.3566 207.807C43.4846 207.774 43.617 207.741 43.7451 207.712C43.851 207.683 43.9658 207.655 44.0762 207.631C44.1159 207.621 44.16 207.612 44.1998 207.602C44.3057 207.578 44.4117 207.549 44.5176 207.53C44.6633 207.497 44.8134 207.468 44.9591 207.44C45.0342 207.425 45.1136 207.411 45.1887 207.397C45.2372 207.387 45.2814 207.377 45.3344 207.368C45.4536 207.349 45.5728 207.33 45.6919 207.311C45.82 207.287 45.948 207.268 46.0804 207.248C46.2085 207.229 46.3409 207.21 46.4689 207.191C46.5396 207.182 46.6058 207.177 46.6764 207.167C46.7559 207.158 46.8398 207.148 46.9192 207.139C46.959 207.134 46.9987 207.129 47.0428 207.124C47.0782 207.124 47.1135 207.119 47.1488 207.115C47.2327 207.105 47.3166 207.1 47.4004 207.091C47.4976 207.081 47.5903 207.072 47.683 207.067C47.7448 207.062 47.8022 207.057 47.8596 207.053C47.9479 207.048 48.0406 207.043 48.1289 207.038C48.2701 207.029 48.4114 207.019 48.5571 207.014C48.6277 207.014 48.6939 207.01 48.7646 207.01C48.8573 207.005 48.9544 207.005 49.0515 207.005C49.1442 207 49.2369 207 49.3297 207C49.5239 207 49.7182 207 49.9124 207.01C50.0095 207.01 50.1066 207.014 50.1994 207.019C50.2965 207.019 50.3892 207.024 50.4819 207.029C50.579 207.033 50.6761 207.043 50.7777 207.048C50.8704 207.053 50.9631 207.062 51.0558 207.067C51.1529 207.076 51.25 207.086 51.3516 207.096C51.4399 207.1 51.5282 207.11 51.6165 207.119C51.9167 207.153 52.2125 207.191 52.5038 207.234Z" fill="white"/>
<path d="M59.2753 196.526C58.3291 196.73 57.369 196.854 56.4089 196.958C55.4627 197.148 54.665 196.688 55.1427 195.633C55.5694 194.76 56.8867 191.593 58.0462 192.044C59.0342 191.901 60.0453 193.744 60.6251 194.446C61.6083 195.785 60.4813 196.341 59.2753 196.526Z" fill="white"/>
<path d="M60.9882 208.739C61.068 208.982 60.7194 209.115 60.6438 208.868C60.5724 208.679 60.5052 208.496 60.438 208.307C60.3204 207.995 60.207 207.688 60.0894 207.38C59.9802 207.086 59.871 206.797 59.7619 206.503C59.7577 206.489 59.7493 206.471 59.7451 206.452C59.6653 206.237 59.5855 206.025 59.5057 205.805C59.4175 205.566 59.3335 205.328 59.2453 205.089C59.1655 204.772 58.9513 204.441 59.0101 204.111C59.0773 203.95 59.3083 203.968 59.3461 204.138C59.4427 204.432 59.5393 204.726 59.6401 205.015C59.6947 205.176 59.7535 205.332 59.8081 205.488C59.9256 205.81 60.0474 206.136 60.1692 206.462C60.3456 206.93 60.522 207.398 60.69 207.876C60.7362 208 60.7782 208.119 60.8244 208.248C60.8874 208.436 60.9378 208.587 60.9882 208.739Z" fill="white"/>
<path d="M64.6184 207.908C64.5184 207.776 64.4183 207.639 64.323 207.522C63.5226 206.478 62.7555 205.405 62.0218 204.312C61.9313 204.126 62.1409 203.931 62.3077 204.024C62.4077 204.077 62.4697 204.185 62.5364 204.278C63.3225 205.424 64.1515 206.542 64.9614 207.674C65.1139 207.893 64.7756 208.137 64.6184 207.908Z" fill="white"/>
<path d="M67.5797 205.947C66.0336 204.726 64.531 203.418 63.0012 202.229C62.974 201.916 63.4204 201.966 63.6055 202.129C64.8413 203.014 65.9465 204.036 67.1115 204.966C67.3837 205.189 67.645 205.407 67.9118 205.624C68.1622 205.802 67.8247 206.128 67.5797 205.947Z" fill="white"/>
<path d="M67.0103 191.9C66.9835 191.782 67.0124 191.65 67.0579 191.597C67.6676 190.775 68.2546 189.86 68.8622 189.029C68.9676 188.892 69.0586 189.283 68.9532 189.42C68.7217 189.762 68.4943 190.1 68.2628 190.437C67.9673 190.878 67.6697 191.303 67.3658 191.704C67.2604 191.782 67.0971 192.184 67.0103 191.9Z" fill="white"/>
<path d="M66.0653 189.985C65.7484 189.754 66.6817 188.722 66.8056 188.457C67.1282 187.986 67.4479 187.511 67.7792 187.052C67.8311 186.98 67.9146 186.984 67.9636 187.057C68.0154 187.138 68.0097 187.258 67.9607 187.335C67.6784 187.759 67.3961 188.183 67.1109 188.602C66.8171 189.043 66.5002 189.454 66.2179 189.917C66.1891 189.994 66.12 190.019 66.0653 189.985Z" fill="white"/>
<path d="M65.1006 188.982C64.7193 188.759 65.5365 187.729 65.65 187.406C65.9496 186.859 66.2719 186.302 66.5897 185.782C66.9438 185.198 67.2752 184.662 67.6248 184.089C67.7927 183.845 68.1241 184.153 67.9516 184.402C67.8654 184.546 67.7882 184.673 67.711 184.8C67.08 185.862 66.449 186.918 65.8406 188C65.6817 188.297 65.5047 188.589 65.3458 188.891C65.3004 188.992 65.1869 189.024 65.1006 188.982Z" fill="white"/>
<path d="M36.3971 206.888C35.0894 206.299 37.3817 205.534 37.9529 206.367C38.246 206.816 37.1036 207.197 36.3971 206.888Z" fill="white"/>
<path d="M44.0134 203.619C43.9505 203.352 44.1151 203.081 44.3814 203.013C44.6477 202.95 44.9188 203.115 44.9866 203.381C45.0495 203.648 44.8849 203.919 44.6186 203.987C44.3523 204.05 44.0812 203.885 44.0134 203.619Z" fill="white"/>
<path d="M51.6271 182.996C51.4934 183.025 51.3737 182.876 51.2435 182.82C50.8705 182.495 50.9514 181.308 51.3139 181.068C51.9368 180.594 52.3274 182.749 51.6271 182.996Z" fill="white"/>
<path d="M59.0148 176.62C58.9478 176.353 59.1152 176.077 59.3787 176.015C59.6464 175.948 59.9225 176.115 59.9852 176.382C60.0522 176.645 59.8848 176.92 59.6171 176.987C59.3536 177.049 59.0775 176.883 59.0148 176.62Z" fill="white"/>
<path d="M55.5 189C50.8142 189 47 184.964 47 180.002C47 175.041 50.8142 171 55.5 171C60.1858 171 64 175.036 64 180.002C64 184.964 60.1858 189 55.5 189ZM55.5 173.615C52.1731 173.615 49.4694 176.482 49.4694 180.002C49.4694 183.523 52.1731 186.39 55.5 186.39C58.8269 186.39 61.5306 183.523 61.5306 180.002C61.5306 176.482 58.8222 173.615 55.5 173.615Z" fill="white"/>
<path d="M35.6718 212C33.9756 210.371 33 208.031 33 205.588C33 200.851 36.5858 197 40.9978 197C45.4098 197 49 200.851 49 205.588C49 206.327 48.9121 207.061 48.7407 207.767L46.4996 207.141C46.6226 206.637 46.6842 206.115 46.6842 205.588C46.6842 202.221 44.1354 199.486 40.9978 199.486C37.8646 199.486 35.3115 202.226 35.3115 205.588C35.3115 207.325 36.0058 208.987 37.2142 210.145L35.6718 212Z" fill="white"/>
<mask id="mask0_113_43611" style="mask-type:luminance" maskUnits="userSpaceOnUse" x="20" y="0" width="260" height="304">
<path d="M20 0H279.859V303.177H20V0Z" fill="white"/>
</mask>
<g mask="url(#mask0_113_43611)">
<path d="M279.599 271.052C279.26 271.818 278.266 271.995 277.427 272.052C269.323 272.604 261.115 271.641 253.354 269.234C253.354 269.234 253.115 269.323 253.083 269.276C246.333 275.682 238.401 280.828 229.802 284.375C227.12 285.484 224.323 286.448 221.745 286.812C221.156 292.802 219.776 298.714 217.656 304.344C217.281 305.339 216.797 306.427 215.51 306.849C208.984 304.521 204.781 298.375 200.224 293.156C197.203 289.708 193.859 286.536 190.792 283.458C183.021 279.844 176.943 273.26 172.521 265.922C168.094 258.589 167.74 248.854 161.687 242.083C154.599 234.161 144.99 228.984 136.896 222.078C130.641 216.74 125.328 210.38 120.307 203.859C108.687 188.766 98.4739 172.594 89.8385 155.615C84.1562 144.448 79.0677 132.573 78.7031 120.052C78.4687 112.052 80.1771 104.141 81.9323 96.3281C84.4375 85.1354 87.0469 73.9635 89.9844 63.3489C84.7448 58.3021 77.8698 54.9687 70.6562 53.9739C63.4427 52.9844 55.9271 54.3385 50.3594 57.75C41.7083 63.9323 36.276 74.3854 36.1927 85.0156C36.1666 88.7917 36.5677 93.1302 33.8541 95.75C31.8021 97.7396 28.4219 97.9427 25.8854 96.651C23.3385 95.3541 21.6041 92.7969 20.7969 90.0625C19.9896 87.3281 20.0208 84.4167 20.3073 81.5781C21.8802 65.776 31.5677 51.0052 45.4219 43.2396C59.2864 35.4792 76.9531 34.9323 91.3437 41.9896C90.8281 36.7917 90.7344 31.5573 91.0677 26.3489C91.4062 21.026 92.4739 15.2031 96.6094 11.8437C97.1198 11.4323 97.6771 11.0625 98.2656 10.776C98.5156 10.6562 98.7604 10.5417 99.0156 10.4531C99.8646 10.1458 100.755 10.0156 101.651 10.1302C102.391 10.2292 103.094 10.5 103.724 10.8958C104.172 11.1666 104.594 11.5 104.964 11.8802C105.422 12.3489 105.823 12.875 106.156 13.4323C107.13 15.0937 107.562 17.0156 107.906 18.9114C109.948 30.1458 109.687 42.1667 115.151 52.1927C118.734 58.7552 124.495 63.8854 128.844 70.2031C133.01 67.4948 137.182 64.7864 141.349 62.0781C145.844 59.1562 150.589 55.9427 152.641 51C153.719 48.4062 153.948 45.5469 153.974 42.7448C154.016 39.0052 153.714 35.2708 153.073 31.5937C152.328 27.3021 151.13 23.0989 150.5 18.7917C149.859 14.4844 149.823 9.97915 151.339 5.89582C152.021 4.0729 153.12 2.27082 154.677 1.18748C154.896 1.03644 155.125 0.895817 155.359 0.770817C155.687 0.604151 156.036 0.463526 156.396 0.359359C157.656 -0.00522513 158.948 0.130192 160.146 0.604151C160.464 0.723941 160.771 0.874984 161.073 1.04165C162.547 1.85936 163.823 3.18227 164.625 4.67186C166.214 7.61457 166.453 11.0677 166.865 14.3906C168.01 23.7031 170.875 33.0937 177.193 40.625C187.812 51.1823 192.87 67.0521 190.307 81.8125C189.198 88.1927 186.76 94.4166 186.88 100.891C187.01 107.542 189.844 113.833 193.078 119.651C197.276 127.187 202.229 134.307 208.484 141.062C216.922 143.016 223.49 149.547 228.948 156.266C232.62 160.792 236.099 165.698 237.448 171.365C239.604 180.401 236.172 190.5 240.167 198.88C243.479 205.807 250.932 209.589 256.359 215.021C260.729 219.396 263.807 224.927 266.104 230.661C268.719 237.198 270.396 244.104 271.083 251.052C274.13 256.984 276.896 263.057 279.385 269.245C279.62 269.823 279.849 270.479 279.599 271.052Z" fill="black"/>
</g>
<path d="M214.255 146.412C213.073 144.714 211.635 143.162 209.823 142.12C209.036 141.672 208.177 141.255 207.26 141.198C207.094 141.052 206.87 140.979 206.635 141.052C205.417 141.526 205.031 141.557 203.974 142.287C202.328 143.521 201.099 145.323 200.656 147.344C199.411 153.724 202.76 159.912 206.068 165.146C209.031 169.802 210.589 172.307 210.651 177.583C210.625 180.089 210.448 181.375 209.557 183.943C208.99 185.412 208.964 185.432 208.448 186.766C207.943 187.552 208.453 188.682 209.427 188.667C210.422 188.682 210.641 187.62 210.938 186.88C211.365 185.792 211.661 184.656 211.979 183.531C212.797 180.672 213.083 177.641 212.609 174.693C211.964 169.667 208.828 166.912 206.438 162.75C203.12 157.359 200.031 150.021 203.198 145.281C205.031 146.021 206.609 147.365 208.089 149.115C208.542 149.656 208.745 149.943 209.224 150.635C209.401 150.964 209.932 150.896 210.021 150.531C210.078 150.328 209.969 150.162 209.849 150.005C209.531 149.552 209.198 149.104 208.849 148.672C207.917 147.542 206.885 146.484 205.688 145.63C205.089 145.234 204.443 144.828 203.766 144.526C203.896 144.375 204.036 144.229 204.188 144.083C205.021 143.307 204.969 143.359 206.292 142.688C206.578 142.516 206.969 142.448 207.234 142.245C207.781 142.271 208.323 142.5 208.88 142.75C210.714 143.641 212.25 145.01 213.344 146.474C213.693 146.849 213.984 147.63 214.396 147.854C214.641 147.927 214.901 147.729 214.896 147.474C214.813 147.073 214.458 146.766 214.255 146.412Z" fill="white"/>
<path d="M188.87 193.563C188.365 189.729 186.875 186.083 185.094 182.677C183.094 179.026 180.646 175.656 178.188 172.302C175.662 168.896 172.896 165.651 169.724 162.818C167.25 160.531 164.458 158.557 161.307 157.318C158.479 156.099 155.281 155.177 152.234 156.13C143.01 159.052 145.63 170.167 148.417 176.99C151.662 184.807 157.12 188.057 156.521 195.859C156.438 198.099 155.823 200.573 154.787 203.516C154.302 204.859 154.354 204.734 153.844 206.01C153.734 206.255 153.703 206.531 153.776 206.792C154.01 207.776 155.521 207.917 155.896 206.953C157.063 204.625 157.458 203.719 158.255 201.609C160.016 196.896 160.021 191.479 157.656 186.974C155.912 183.531 153.38 180.552 151.656 177.094C149.401 172.479 147.662 166.427 148.901 162.422C151.464 163.313 154.12 165.109 155.875 167.401C156.13 167.667 156.26 168.083 156.578 168.255C156.833 168.339 157.068 168.031 156.927 167.802C155.714 166.021 154.188 164.432 152.38 163.24C151.37 162.641 150.318 162.005 149.193 161.635C149.698 160.495 150.5 159.573 151.672 158.964C152.016 158.781 152.359 158.635 152.708 158.51C152.677 158.724 152.766 158.948 153.031 159.016C154.323 159.224 154.943 159.646 156.156 160.266C157.995 161.349 158.906 162.089 160.412 163.948C160.427 163.964 160.443 163.99 160.458 164.01C160.646 164.24 160.76 164.568 161.068 164.651C161.552 164.802 162 164.219 161.729 163.792C160.604 162.292 159.307 160.896 157.693 159.922C156.49 159.245 155.234 158.531 153.88 158.219C155.547 157.948 157.396 158.297 159.823 159.297C168.495 162.682 175.214 172.271 180.807 181.016C183.469 185.589 185.021 188.708 186.078 193.906C186.214 194.729 186.109 194.146 186.328 195.375C186.333 195.401 186.339 195.427 186.339 195.458C186.344 195.49 186.349 195.521 186.354 195.563C186.359 195.599 186.365 195.63 186.37 195.656C186.365 195.635 186.365 195.625 186.359 195.604C186.365 195.661 186.37 195.724 186.37 195.786C186.594 198.76 186.531 201.75 186.438 204.729C186.432 206.089 188.531 206.135 188.552 204.729C188.781 201.042 189.193 196.031 188.87 193.563Z" fill="white"/>
<path d="M186.339 195.458C186.318 195.333 186.307 195.323 186.359 195.604C186.359 195.589 186.359 195.578 186.354 195.563C186.349 195.526 186.344 195.495 186.339 195.458Z" fill="white"/>
<mask id="mask1_113_43611" style="mask-type:luminance" maskUnits="userSpaceOnUse" x="201" y="286" width="19" height="18">
<path d="M201.193 286.031H219.86V303.177H201.193V286.031Z" fill="white"/>
</mask>
<g mask="url(#mask1_113_43611)">
<path d="M219.61 286.745C219.422 286.547 219.063 286.641 218.995 286.906C218.125 290.375 217.531 294.078 216.625 297.224C216.219 298.599 215.714 299.818 215.339 300.995C215.016 302.052 214.938 302.74 214.469 303.365C214.453 303.37 214.438 303.396 214.438 303.396C214.422 303.412 214.406 303.427 214.396 303.443C214.339 303.432 214.224 303.406 214.13 303.365C213.834 303.229 213.563 303.052 213.302 302.854C209.438 299.844 205.599 294.219 202.651 290.755C202.406 290.313 201.709 290.734 202 291.156C204.021 294.198 206.261 297.011 208.88 299.891C209.787 300.886 210.787 301.781 211.797 302.667C212.479 303.193 214.026 304.74 214.87 303.995C214.917 303.938 214.953 303.875 214.985 303.807C214.995 303.807 215.068 303.609 215.099 303.505C215.281 303.125 215.354 302.927 215.448 302.761C216.505 300.917 217.047 298.464 217.729 296.089C218.406 293.818 219.401 290.651 219.589 288.287C219.641 287.766 219.667 287.573 219.719 287.005C219.719 286.906 219.677 286.813 219.61 286.745Z" fill="white"/>
</g>
<path d="M277.177 268.37C276.448 265.63 275.089 263.094 273.953 260.5C273.193 258.766 272.229 257.135 271.11 255.604C271.011 255.432 270.839 255.271 270.625 255.318C270.094 255.417 270.235 255.953 270.511 256.255C270.979 256.969 271.438 257.693 271.854 258.437C272.891 260.328 273.693 262.338 274.641 264.271C275.49 266.083 276.36 267.99 276.328 269.422C276.177 269.484 276.026 269.521 275.88 269.552C274.302 269.88 272.057 269.974 269.974 269.969C267.25 269.906 265.307 269.588 262.61 269.047C260.599 268.625 258.573 268.203 256.641 267.495C256.005 267.25 255.787 267.156 255.125 266.818C255.031 266.76 254.922 266.75 254.813 266.776C254.485 266.859 254.412 267.349 254.719 267.51C256.729 268.552 258.958 269.031 261.156 269.516C265.208 270.411 269.37 270.75 273.516 270.599C274.776 270.531 275.818 270.531 276.807 270.276C277.526 269.937 277.297 268.995 277.177 268.37Z" fill="white"/>
<path d="M216.354 287C216.073 286.859 215.708 287.104 215.719 287.417C215.677 290.557 214.792 293.802 213.51 297.005C213.49 297.057 213.469 297.109 213.453 297.161C213.464 297.135 213.469 297.125 213.474 297.109C213.307 297.427 213.693 297.802 214.01 297.604C215.245 295.833 215.865 293.635 216.339 291.542C216.568 290.443 216.651 289.521 216.672 288.141C216.625 287.766 216.781 287.182 216.354 287Z" fill="white"/>
<path d="M213.536 288.063C213.297 290.427 212.682 293.412 211.615 295.521C211.406 295.839 211.797 296.25 212.125 296.052C212.979 294.87 213.313 293.323 213.635 291.912C213.828 290.604 214.089 289.266 214.078 287.953C213.979 287.672 213.526 287.766 213.536 288.063Z" fill="white"/>
<path d="M211.542 287.729C211.24 287.578 210.86 287.839 210.87 288.167C210.828 289.245 210.735 289.786 210.469 290.938C210.422 291.307 210.151 291.708 210.323 292.068C210.552 292.469 211.167 292.307 211.219 291.865C211.531 290.839 211.724 289.776 211.813 288.708C211.823 288.37 211.948 287.875 211.542 287.729Z" fill="white"/>
<path d="M268.682 267.182C265.339 267.318 262.276 267.172 259.266 266.531C257.901 266.26 257.146 265.906 256.078 265.443C255.479 265.328 255.177 266.214 255.708 266.5C257.698 267.531 259.969 267.76 262.167 267.979C264.359 268.162 267.25 268.234 269.036 267.943C269.536 267.688 269.208 267.063 268.682 267.182Z" fill="white"/>
<path d="M267.448 264.828C267.156 264.724 267.245 264.802 266.912 264.833C264.667 265.271 262.573 265.365 260.083 265.125C259.552 265.099 258.667 264.891 257.854 264.792C257.448 264.823 257.401 265.448 257.802 265.542C260.958 266.26 264.375 266.375 267.485 265.432C267.698 265.297 267.667 264.948 267.448 264.828Z" fill="white"/>
<path d="M268.516 262.354C268.281 262.313 268.052 262.438 267.818 262.474C265.75 262.906 263.901 263.49 262.099 263.615C261.698 263.635 261.297 263.656 260.901 263.604C260.708 263.573 260.505 263.5 260.328 263.604C260.016 263.771 260.083 264.276 260.427 264.359C263.125 265.031 266.464 263.844 268.646 263.021C268.896 262.849 268.807 262.427 268.516 262.354Z" fill="white"/>
<path d="M222.823 225.526C221.62 226.682 220.198 227.609 218.656 228.24C218.484 228.313 218.245 228.354 218.156 228.193C218.115 228.125 218.125 228.036 218.13 227.958C218.261 226.906 218.615 225.88 219.156 224.969C219.25 224.802 219.359 224.641 219.516 224.531C219.755 224.365 220.068 224.359 220.359 224.37C221.099 224.396 221.833 224.495 222.552 224.667C222.703 224.703 222.865 224.745 222.964 224.865C223.063 224.979 223.115 225.245 222.823 225.526Z" fill="white"/>
<path d="M99.4688 18.474C99.4063 18.7917 98.9427 18.8594 98.7917 18.5729C98.6562 18.3177 98.8594 18.0365 98.8906 17.776C99.3906 15.5521 99.2135 12.8594 98.2656 10.776C98.5156 10.6562 98.7604 10.5417 99.0156 10.4531C99.3906 11.2865 99.5365 12.2344 99.6875 13.1094C99.974 14.8906 99.8438 16.7188 99.4688 18.474Z" fill="white"/>
<path d="M104.781 18.2917C104.703 18.625 104.172 18.5834 104.146 18.2448C104.235 17.5886 104.391 17.1302 104.422 16.3698C104.563 14.4115 104.453 12.3907 103.724 10.8959C104.172 11.1667 104.594 11.5 104.964 11.8802C105.417 13.9948 105.281 16.2084 104.781 18.2917Z" fill="white"/>
<path d="M156.245 10.8177C156.255 11.0677 155.927 11.2032 155.761 11.0209C155.703 10.9688 155.672 10.8959 155.677 10.8177C155.724 10.375 155.766 9.93754 155.797 9.48962C155.943 7.13025 155.797 5.11462 155.266 2.95837C155.057 2.224 154.927 1.70316 154.677 1.18754C154.896 1.0365 155.125 0.895874 155.36 0.770874C155.745 1.56254 155.922 2.46358 156.12 3.30212C156.563 5.78129 156.578 8.32296 156.245 10.8177Z" fill="white"/>
<mask id="mask2_113_43611" style="mask-type:luminance" maskUnits="userSpaceOnUse" x="159" y="0" width="4" height="12">
<path d="M159.859 0H162.526V11.3646H159.859V0Z" fill="white"/>
</mask>
<g mask="url(#mask2_113_43611)">
<path d="M161.958 10.4167C161.885 10.7345 161.422 10.7917 161.271 10.5105C161.135 10.2084 161.344 9.86466 161.359 9.55216C161.693 7.90112 161.63 5.97404 161.365 4.43237C161.109 3.08341 160.865 1.95321 160.161 0.94279C160.089 0.822998 160.094 0.697997 160.146 0.604248C160.464 0.724039 160.771 0.875081 161.073 1.04175C161.505 1.823 161.708 2.71362 161.891 3.57821C162.286 5.83862 162.172 8.14592 161.958 10.4167Z" fill="white"/>
</g>
<path d="M211.609 234.37C212.214 234.969 212.75 235.625 213.224 236.333C213.698 237.042 214.099 237.792 214.422 238.578C214.75 239.365 214.995 240.177 215.162 241.01C215.328 241.844 215.412 242.688 215.412 243.542C215.412 244.391 215.328 245.234 215.162 246.073C214.995 246.906 214.75 247.719 214.422 248.505C214.099 249.292 213.698 250.042 213.224 250.75C212.75 251.458 212.214 252.109 211.609 252.714C211.005 253.318 210.349 253.854 209.641 254.328C208.932 254.802 208.188 255.198 207.396 255.526C206.609 255.849 205.797 256.099 204.964 256.266C204.125 256.427 203.281 256.51 202.432 256.51C201.578 256.51 200.734 256.427 199.896 256.266C199.063 256.099 198.25 255.849 197.464 255.526C196.672 255.198 195.927 254.802 195.219 254.328C194.51 253.854 193.854 253.318 193.25 252.714C192.646 252.109 192.109 251.458 191.635 250.75C191.162 250.042 190.76 249.292 190.438 248.505C190.109 247.719 189.865 246.906 189.698 246.073C189.531 245.234 189.448 244.391 189.448 243.542C189.448 242.688 189.531 241.844 189.698 241.01C189.865 240.177 190.109 239.365 190.438 238.578C190.76 237.792 191.162 237.042 191.635 236.333C192.109 235.625 192.646 234.969 193.25 234.37C193.854 233.766 194.51 233.229 195.219 232.755C195.927 232.281 196.672 231.885 197.464 231.557C198.25 231.229 199.063 230.984 199.896 230.818C200.734 230.651 201.578 230.568 202.432 230.568C203.281 230.568 204.125 230.651 204.964 230.818C205.797 230.984 206.609 231.229 207.396 231.557C208.188 231.885 208.932 232.281 209.641 232.755C210.349 233.229 211.005 233.766 211.609 234.37Z" fill="white"/>
<path d="M210.682 243.542C210.682 248.094 206.985 251.787 202.427 251.787C197.875 251.787 194.177 248.094 194.177 243.542C194.177 238.99 197.875 235.297 202.427 235.297C206.985 235.297 210.682 238.99 210.682 243.542Z" fill="black"/>
<path d="M245.828 211.724C246.62 211.912 247.391 212.172 248.135 212.511C248.88 212.849 249.583 213.255 250.25 213.729C250.911 214.208 251.521 214.745 252.078 215.339C252.641 215.938 253.135 216.583 253.562 217.276C253.995 217.969 254.354 218.698 254.641 219.464C254.927 220.229 255.135 221.016 255.271 221.823C255.401 222.625 255.453 223.438 255.427 224.255C255.401 225.073 255.292 225.875 255.104 226.672C254.917 227.469 254.656 228.234 254.318 228.979C253.979 229.724 253.573 230.427 253.094 231.089C252.62 231.755 252.083 232.365 251.484 232.922C250.885 233.479 250.24 233.974 249.547 234.401C248.854 234.833 248.125 235.193 247.359 235.479C246.594 235.766 245.807 235.974 245 236.109C244.193 236.24 243.38 236.292 242.562 236.266C241.745 236.24 240.943 236.13 240.146 235.943C239.349 235.755 238.578 235.495 237.833 235.156C237.089 234.818 236.385 234.412 235.724 233.938C235.057 233.458 234.448 232.922 233.891 232.328C233.333 231.729 232.839 231.083 232.406 230.391C231.974 229.698 231.615 228.969 231.328 228.203C231.042 227.438 230.833 226.651 230.703 225.844C230.568 225.042 230.516 224.229 230.542 223.412C230.573 222.594 230.677 221.792 230.865 220.995C231.052 220.198 231.312 219.432 231.651 218.688C231.99 217.943 232.396 217.24 232.875 216.578C233.354 215.912 233.891 215.302 234.484 214.745C235.083 214.188 235.729 213.693 236.422 213.266C237.12 212.833 237.849 212.474 238.615 212.188C239.38 211.901 240.167 211.693 240.969 211.557C241.776 211.427 242.589 211.375 243.406 211.401C244.224 211.427 245.031 211.537 245.828 211.724Z" fill="white"/>
<path d="M250.896 223.833C250.896 224.354 250.849 224.865 250.745 225.375C250.646 225.885 250.495 226.38 250.297 226.859C250.094 227.339 249.854 227.792 249.563 228.224C249.276 228.656 248.948 229.057 248.578 229.422C248.214 229.792 247.813 230.12 247.38 230.406C246.948 230.693 246.495 230.938 246.01 231.135C245.531 231.333 245.037 231.484 244.531 231.589C244.021 231.688 243.505 231.74 242.984 231.74C242.464 231.74 241.953 231.688 241.443 231.589C240.932 231.484 240.438 231.333 239.958 231.135C239.479 230.938 239.021 230.693 238.589 230.406C238.156 230.12 237.76 229.792 237.391 229.422C237.026 229.057 236.698 228.656 236.406 228.224C236.12 227.792 235.875 227.339 235.677 226.859C235.479 226.38 235.328 225.885 235.224 225.375C235.125 224.865 235.073 224.354 235.073 223.833C235.073 223.313 235.125 222.802 235.224 222.292C235.328 221.781 235.479 221.286 235.677 220.807C235.875 220.328 236.12 219.875 236.406 219.443C236.698 219.01 237.026 218.609 237.391 218.245C237.76 217.875 238.156 217.547 238.589 217.26C239.021 216.974 239.479 216.729 239.958 216.531C240.438 216.333 240.932 216.182 241.443 216.078C241.953 215.979 242.464 215.927 242.984 215.927C243.505 215.927 244.021 215.979 244.531 216.078C245.037 216.182 245.531 216.333 246.01 216.531C246.495 216.729 246.948 216.974 247.38 217.26C247.813 217.547 248.214 217.875 248.578 218.245C248.948 218.609 249.276 219.01 249.563 219.443C249.854 219.875 250.094 220.328 250.297 220.807C250.495 221.286 250.646 221.781 250.745 222.292C250.849 222.802 250.896 223.313 250.896 223.833Z" fill="black"/>
</g>
<defs>
<clipPath id="clip0_113_43611">
<rect width="300" height="300" fill="white"/>
</clipPath>
</defs>
</svg>
