<svg width="300" height="300" viewBox="0 0 300 300" fill="none" xmlns="http://www.w3.org/2000/svg">
<mask id="mask0_113_43724" style="mask-type:luminance" maskUnits="userSpaceOnUse" x="54" y="0" width="192" height="300">
<path d="M54.7908 0H245.118V300H54.7908V0Z" fill="white"/>
</mask>
<g mask="url(#mask0_113_43724)">
<path fill-rule="evenodd" clip-rule="evenodd" d="M91.3237 139.568C85.5544 130.816 94.5771 132.225 98.7155 122.531C102.485 113.68 104.009 104.018 107.714 95.1759C108.197 94.0204 109.049 92.07 110.524 91.9225C117.228 91.2424 131.02 120.982 138.633 117.278C146.566 113.418 133.757 88.1529 144.894 89.4886C156.678 90.9064 167.676 114.344 176.567 121.572C180.37 124.669 182.328 118.245 184.271 119.867C187.081 122.219 185.828 127.841 189.114 129.857C189.687 130.217 190.482 130.267 191.048 129.84C195.981 126.087 192.072 106.469 191.138 101.568C189.409 92.4142 178.96 74.918 178.755 69.2799C178.591 64.9776 187.926 67.4852 188.95 62.2815C190.302 55.4633 182.525 48.6697 182.238 41.7859C182.074 37.5737 187.59 40.9337 187.467 36.6969C187.327 31.657 178.157 4.0237 183.91 2.13886C191.261 -0.270444 200.39 26.4942 205.946 28.4036C210.839 30.0918 213.281 11.3336 216.477 12.8332C220.541 14.7427 221.934 40.5731 222.254 45.4819C222.992 56.8564 230.597 54.0865 231.473 65.3382C232.416 77.4257 227.663 108.124 232.35 117.376C234.12 120.883 239.668 119.933 240.979 122.965C241.922 125.145 238.472 129.193 237.456 130.922C235.686 133.905 232.965 151.655 233.432 154.597C234.26 159.949 246.65 159.465 244.725 164.89C240.611 176.437 223.655 181.329 220.992 193.581C219.23 201.694 231.654 202.095 231.547 205.775C231.359 212.281 216.837 213.191 215.043 219.616C213.699 224.443 221.23 224.303 221.844 227.458C222.287 229.728 211.453 230.286 215.862 234.113C217.354 235.416 224.049 235.932 224.499 237.702C224.672 238.358 220.959 238.989 220.615 239.079C215.952 240.259 211.166 242.111 208.446 246.364C204.389 252.682 208.855 258.394 208.577 264.803C208.552 265.368 208.437 266.286 207.749 266.425C204.446 267.106 202.34 259.255 198.317 261.304C193.039 263.991 195.817 288.019 185.77 294.329C169.151 304.753 171.085 261.918 160.382 262.025C155.719 262.066 150.786 265.04 146.058 265.671C141.706 266.253 138.879 263.926 134.937 263.705C127.004 263.262 119.842 265.966 111.68 264.377C110.959 264.237 110.279 264.491 109.729 264.967C103.591 270.269 103.436 297.083 95.1179 298.099C79.9491 299.951 85.661 252.674 80.7686 248.765C76.6302 245.463 61.9531 247.561 61.4286 246.331C61.1663 245.725 62.5677 244.93 62.8955 244.684C69.5661 239.702 74.5814 233.728 66.5094 227.303C66.1898 227.049 64.5836 225.975 65.0261 225.361C66.1898 223.754 71.3526 223.23 73.1965 221.697C74.2045 220.862 75.2124 219.739 75.024 218.321C73.8029 209.405 57.3311 208.766 56.0527 199.145C54.7907 189.639 74.1471 191.475 76.8678 185.042C79.3345 179.207 71.5001 176.535 71.3362 171.93C71.2625 169.897 74.9584 170.872 74.9256 167.988C74.8437 161.432 71.3608 155.491 73.4178 148.754C75.95 140.453 83.94 139.437 90.7746 142.625C92.1432 143.264 93.8395 144.264 93.3888 142.018" fill="black"/>
</g>
<path fill-rule="evenodd" clip-rule="evenodd" d="M109.977 160.436C98.2174 166.592 95.6731 179.012 96.0319 185.638C96.9697 202.714 120.75 204.337 132.526 196.459C155.612 181.031 131.963 148.939 109.977 160.436Z" fill="white"/>
<path fill-rule="evenodd" clip-rule="evenodd" d="M115.859 163.928C111.774 168.791 110.884 178.615 111.011 183.847C111.342 197.353 119.606 198.641 123.708 192.408C131.734 180.206 123.504 154.833 115.859 163.928Z" fill="black"/>
<path fill-rule="evenodd" clip-rule="evenodd" d="M184.32 160.411C174.748 155.296 164.166 165.372 161.706 170.211C157.086 179.306 162.418 190.29 170.889 194.805C197.338 208.902 206.95 172.497 184.32 160.411Z" fill="white"/>
<path fill-rule="evenodd" clip-rule="evenodd" d="M183.513 163.158C179.374 158.959 174.804 167.235 173.74 171.2C171.739 178.668 174.043 187.671 177.704 191.377C189.148 202.947 193.305 173.081 183.513 163.158Z" fill="black"/>
</svg>
