<svg width="300" height="300" viewBox="0 0 300 300" fill="none" xmlns="http://www.w3.org/2000/svg">
<g clip-path="url(#clip0_113_43687)">
<path fill-rule="evenodd" clip-rule="evenodd" d="M135.075 104.979C117.599 74.4949 -3.94258 111.344 0.0985059 196.325C0.663955 208.142 -0.0749002 221.931 8.72352 230.803C30.0976 252.347 101.186 250.625 128.335 249.303C156.698 247.922 247.932 253.592 259.135 219.19C263.425 206.043 256.15 194.339 258.404 182.181C260.508 170.825 283.156 168.552 283.978 147.107C284.754 126.56 265.22 112.281 258.706 94.0221C255.305 84.5153 255.773 33.8019 252.674 32.186C244.064 27.7006 221.054 66.672 196.996 66.0905C170.39 65.4411 172.109 17.3858 161.169 20.1117C147.244 23.5928 139.343 89.8237 135.075 104.979Z" fill="black"/>
<path fill-rule="evenodd" clip-rule="evenodd" d="M161.81 139.022C153.97 140.184 146.115 142.425 138.437 144.334C137.421 144.583 136.798 145.594 137.06 146.598C137.321 147.594 138.36 148.198 139.375 147.941C146.93 146.062 154.67 143.851 162.379 142.704C163.418 142.554 164.133 141.603 163.979 140.584C163.825 139.566 162.848 138.864 161.81 139.022Z" fill="white"/>
<path fill-rule="evenodd" clip-rule="evenodd" d="M163.823 153.938C164.373 153.702 164.811 153.189 164.945 152.525C165.138 151.562 164.774 151.018 164.573 150.757C164.135 150.181 163.488 149.81 162.566 150.102C162.366 150.173 162.016 150.331 161.659 150.678C161.347 150.986 160.827 151.673 160.544 151.941C158.961 153.433 157.303 154.83 155.682 156.267C151.393 160.072 147.103 163.861 142.702 167.516C141.907 168.179 141.765 169.403 142.39 170.247C143.014 171.1 144.174 171.25 144.977 170.587C149.408 166.9 153.727 163.087 158.046 159.259C159.689 157.799 161.377 156.37 162.99 154.862C163.161 154.696 163.548 154.254 163.823 153.938ZM161.31 151.933C161.295 152.06 161.295 152.178 161.31 152.289C161.295 152.17 161.302 152.052 161.31 151.933ZM161.317 151.87L161.31 151.91L161.325 151.839L161.317 151.87Z" fill="white"/>
<mask id="mask0_113_43687" style="mask-type:luminance" maskUnits="userSpaceOnUse" x="273" y="132" width="32" height="10">
<path d="M273.761 132.108H304.152V141.759H273.761V132.108Z" fill="white"/>
</mask>
<g mask="url(#mask0_113_43687)">
<path fill-rule="evenodd" clip-rule="evenodd" d="M278.013 133.126C277.719 133.043 277.403 133.028 277.094 133.104C276.038 133.345 275.797 134.099 275.699 134.446C275.631 134.717 275.36 136.263 277.026 136.722C277.199 136.768 278.488 136.956 280.403 137.235C282.19 137.499 283.977 137.77 285.764 138.034C291.139 138.833 296.53 139.565 301.936 140.1C302.961 140.206 303.873 139.459 303.979 138.434C304.077 137.416 303.331 136.496 302.305 136.398C296.96 135.863 291.629 135.147 286.322 134.355C284.527 134.084 282.733 133.812 280.946 133.548C279.582 133.352 278.307 133.164 278.013 133.126ZM279.137 135.833C278.888 136.27 278.466 136.609 277.93 136.73C278.669 136.564 278.986 136.127 279.137 135.833ZM279.265 134.287C279.423 134.672 279.423 135.049 279.31 135.411C279.393 135.124 279.401 134.807 279.333 134.498C279.31 134.423 279.295 134.355 279.265 134.287Z" fill="white"/>
</g>
<path fill-rule="evenodd" clip-rule="evenodd" d="M276.375 148.739C283.47 152.882 289.882 158.049 297.258 161.796C298.177 162.259 299.317 161.908 299.788 161.003C300.266 160.098 299.909 158.976 298.982 158.513C291.674 154.796 285.324 149.658 278.289 145.56L278.16 145.493C277.917 145.269 277.605 145.112 277.256 145.037C276.238 144.835 275.243 145.485 275.038 146.48C274.962 146.876 274.977 147.355 275.304 147.864C275.395 148.006 275.547 148.2 275.782 148.38C275.927 148.492 276.253 148.671 276.375 148.739Z" fill="white"/>
<path fill-rule="evenodd" clip-rule="evenodd" d="M186.335 89.3238C183.161 88.8027 178.657 90.6152 175.791 91.6574C152.051 100.259 172.425 128.322 189.64 127.997C212.135 127.574 208.976 84.8833 186.335 89.3238Z" fill="white"/>
<path fill-rule="evenodd" clip-rule="evenodd" d="M191.136 93.7051C188.645 92.6215 184.566 93.0594 182 93.2524C160.711 94.8481 171.465 121.129 185.642 124.588C204.177 129.1 210.641 95.1227 191.136 93.7051Z" fill="black"/>
<path fill-rule="evenodd" clip-rule="evenodd" d="M238.73 88.0024C212.463 87.6617 222.46 126.759 244.103 125.989C265.59 125.226 257.745 87.6543 238.73 88.0024Z" fill="white"/>
<path fill-rule="evenodd" clip-rule="evenodd" d="M239.88 92.002C216.704 91.7226 225.522 123.616 244.618 122.991C263.577 122.366 256.663 91.7152 239.88 92.002Z" fill="black"/>
</g>
<defs>
<clipPath id="clip0_113_43687">
<rect width="300" height="300" fill="white"/>
</clipPath>
</defs>
</svg>
