<svg width="431" height="344" viewBox="0 0 431 344" fill="none" xmlns="http://www.w3.org/2000/svg">
<g clip-path="url(#clip0_116_195)">
<path d="M412.854 174.974C411.953 176.641 411.031 178.292 410.109 179.937C403.484 193.109 396.391 206.057 389.266 218.948C381.219 233.641 373.286 248.432 363.755 262.234C362.323 264.667 355.995 273.224 349.141 281.208C349.365 282.302 349.562 283.396 349.672 284.51C350.651 289.214 351.88 294.141 350.641 298.917C347.937 308.12 337.807 312.932 328.693 312.281C324.286 312.026 319.974 310.833 316.12 308.693C312.74 310.417 309.25 311.901 305.682 313.177C304.911 313.568 304.141 313.953 303.37 314.339C301.521 314.849 299.646 315.281 297.766 315.646C286.266 318.729 274.193 319.911 262.359 319.87C245.599 319.854 228.891 318.214 212.208 316.755C206.266 316.141 200.328 315.51 194.437 314.526C189.177 314.375 183.911 314.208 178.656 313.953C175.443 316.729 170.568 318.005 165.75 317.734C158.089 317.536 150.354 315.057 144.12 310.594C138.948 310.505 133.771 310.469 128.594 310.49C108.453 311.568 88.3385 313.135 68.2396 314.792C58.4166 315.573 48.6354 317.13 38.7604 316.901C27.0364 317.443 15.1406 312.937 7.9531 303.422C5.98956 300.859 3.95831 298.021 2.53644 294.974C0.0833117 291.203 -1.06773 286.625 0.52602 282.24C2.7031 275.589 8.85415 271.687 14.151 267.651C21.4375 262.224 28.9896 257.172 36.6979 252.37C37.2083 251.953 37.7083 251.531 38.2187 251.12C41.6562 248.318 45.0833 245.49 48.4375 242.578C48.4375 242.573 48.4479 242.568 48.4531 242.568C48.4635 242.557 48.4687 242.552 48.4791 242.542C48.5729 242.464 48.6666 242.38 48.7552 242.302C48.75 242.307 48.7448 242.312 48.7344 242.318C48.7656 242.292 48.7916 242.271 48.8177 242.245C48.8177 242.245 48.8177 242.245 48.8229 242.24H48.8177C50.6041 240.682 52.375 239.099 54.0937 237.464C55.7291 235.906 57.3125 234.307 58.8802 232.682C60.6146 230.87 62.2916 229.021 63.9479 227.13C66.9219 223.724 69.6614 220.083 72.3802 216.474C75.0312 212.953 77.6719 209.422 80.2916 205.88C85.3958 198.974 90.375 191.969 95.3541 184.964C97.3437 182.172 99.3333 179.375 101.292 176.557C105.057 171.161 108.724 165.693 112.328 160.193C111.953 150.328 113.724 140.151 117.474 130.167C120.635 114.469 125.297 98.1614 126.698 90.7135C133.109 64.3802 141.302 25.7552 176.682 43.9323C186.542 49.677 195.286 57.1093 203.49 65.1666C205.104 65.0989 206.714 65.0677 208.344 65.0989C220.427 64.0989 232.63 64.3645 244.573 66.2291C253.589 42.6198 268.203 14.7656 295.687 38.1458C319.26 60.8333 335.052 101.99 336.12 138.344C350.469 135.964 364.328 130.141 381.016 118.906C385.958 115.651 390.156 111.036 396.01 109.422C404.094 106.781 412.786 108.448 419.917 112.802C421.276 113.359 422.589 114.031 423.859 114.812C426.802 116.526 428.661 118.948 429.677 121.844C429.719 121.891 429.75 121.943 429.786 121.995C429.776 122.026 429.771 122.062 429.766 122.099V122.109C434.646 136.901 418.297 163.844 412.854 174.969V174.974ZM48.7969 242.266C48.7969 242.266 48.8125 242.255 48.8177 242.25C48.8177 242.25 48.8021 242.26 48.7969 242.266Z" fill="black"/>
<mask id="mask0_116_195" style="mask-type:luminance" maskUnits="userSpaceOnUse" x="4" y="50" width="422" height="272">
<path d="M4.66663 50H426V321.63H4.66663V50Z" fill="white"/>
</mask>
<g mask="url(#mask0_116_195)">
<path d="M185.833 308.896C186.687 318.26 174.552 321.208 167.208 321.604C161.401 321.396 155.896 319.516 150.604 317.099C150.37 317.177 150.12 317.224 149.859 317.229C149.437 317.229 148.989 317.12 148.531 316.859C144.917 314.927 141.37 312.844 137.906 310.625C137.885 310.615 137.87 310.604 137.849 310.594C137.739 310.51 137.625 310.432 137.516 310.349C137.182 310.104 136.854 309.854 136.51 309.615C135.635 309.005 134.755 308.401 133.875 307.802C133.797 307.755 133.713 307.703 133.635 307.651C132.823 307.104 132 306.557 131.172 306.031C115.182 294.437 101.667 279.531 93.3853 261.432C91.2187 256.245 88.3176 250.484 89.2291 244.75C89.7864 242.906 92.6197 244.135 91.6145 245.802C96.2812 265.427 115.588 287.651 131.766 299.344C138.026 303.844 144.286 308.453 151.146 312.016C151.359 312.125 151.542 312.255 151.698 312.396C155.995 314.047 160.38 315.464 164.854 316.552C171.182 317.958 180.979 315.49 181.328 307.833C180.458 303.547 177.104 300.203 176.062 295.917C172.953 286.432 171.036 276.589 169.536 266.74C167.823 256.88 168.031 246.865 167.286 236.937C167.078 236.172 167.604 235.344 168.406 235.219C171.213 234.937 170.937 243.802 171.463 245.88C173.224 263.109 177.734 279.859 182.031 296.589C182.63 300.906 184.896 304.698 185.823 308.901L185.833 308.896ZM408.318 110.531C405.557 109.443 403.5 112.667 401.937 114.458C400.495 116.812 396.135 120.786 399.536 123.146C401.781 124.37 403.177 121.99 404.068 120.281C405.667 117.589 407.458 114.964 409.271 112.484C409.463 111.698 409.047 110.865 408.318 110.531ZM424.141 117.906C421.703 116.641 419.625 119.635 418.141 121.187C416.552 123.573 411.927 127.656 415.495 130.146C418.703 131.698 419.823 127.359 421.229 125.37C421.818 123.464 426.234 119.281 424.141 117.906ZM241.557 278.422C239.875 279.943 241.562 281.531 242.453 282.917C243.531 285.307 246.141 289.687 243.167 291.573C241.255 292.51 238.875 291.865 237.193 290.724C235.614 289.615 234.776 287.708 233.167 286.672C231.739 285.984 230.552 287.26 230.073 288.505C228.849 290.214 227.463 292.099 225.526 293.031C218.38 295.089 215.047 287.589 219.792 282.51C221.75 281.875 220.833 278.891 218.844 279.531C215.989 280.568 214.146 283.562 213.823 286.495C213.01 292.01 218.479 296.302 223.698 295.833C227.224 295.896 230.031 293.469 232.375 291.104C234.193 294.042 237.318 296.115 240.828 296.182C246.771 296.484 250.042 291.073 248.047 285.714C247.224 283.37 245.026 275.969 241.557 278.417V278.422ZM337.203 253.344C332.896 241.464 329.62 229.167 327.568 216.698C328.229 214.792 325.047 214.266 325.062 216.286C326.245 238.698 335.01 259.833 343.818 280.203C344.906 282.646 348.646 280.901 347.552 278.526C343.823 270.25 340.422 261.828 337.203 253.344ZM319.458 305.714C314.01 302.536 308.786 298.984 303.583 295.432C291.036 286.781 278.297 277.385 269.891 264.458C270.328 263.078 268.266 262.318 267.656 263.615C267.172 266.88 270.318 269.698 271.854 272.38C283.578 288.422 300.885 299.083 317.552 309.354C319.885 310.641 321.828 306.906 319.463 305.719L319.458 305.714ZM17.5624 285.302C16.078 282.568 9.58844 290.016 8.28115 291.276C7.20302 292.609 4.4999 294.63 6.59365 296.25C7.91136 297.141 9.05198 295.88 9.69261 294.802C10.4322 293.839 11.177 292.885 11.9739 291.969C13.5624 290.156 15.2447 288.411 17.0624 286.833C17.6093 286.557 17.8384 285.844 17.5676 285.302H17.5624ZM24.4843 297.833C23.3749 297.516 22.4426 298.672 21.5937 299.297C19.5728 301.094 17.7395 303.115 16.2082 305.349C15.5676 306.24 15.9843 307.557 16.9426 308.021C18.8124 308.911 19.6562 306.719 20.4947 305.469C21.6822 303.5 22.8957 301.547 24.2812 299.708C24.8801 299.125 25.4322 298.464 24.4843 297.839V297.833ZM265.109 187.312C263.708 186.964 262.364 186.505 261.068 185.969C251.151 182.422 244.193 173.573 243.948 163.76C243.448 158.276 244.849 152.516 248.713 147.214C252.172 142.26 257.521 139.557 263.427 138.729C264.114 138.464 264.802 138.224 265.516 138.036C279.391 134.047 293.01 142.891 297.167 156.266C300.187 165.51 296.026 176.062 288.807 182.203C285.911 184.656 282.458 186.156 278.818 186.953C274.364 188.219 269.547 188.344 265.109 187.307V187.312ZM251.385 154.333C243.536 168.417 255.802 182.568 270.573 182.635C275.854 182.891 281.422 181.854 285.573 178.391C291.109 173.651 294.531 165.651 292.594 158.432C291.708 155.755 290.443 152.854 288.651 150.474C287.031 148.844 285.042 147.312 282.609 145.943C282.448 145.896 282.302 145.833 282.141 145.792C271.562 142.203 257.448 143.974 251.38 154.333H251.385ZM222.984 181.25C226.63 183.224 227.76 180.714 229.531 177.906C231.088 174.849 233.042 171.536 232.729 167.885C232.526 165.401 229.802 163.771 227.776 165.042C225.989 166.047 224.969 168 224.318 169.958C223.406 168.167 222.364 166.307 220.755 165.109C218.906 163.542 215.974 164.255 215.411 166.729C214.364 172.443 218.005 178.776 222.984 181.25ZM310.26 162.297C312.995 162.443 315.448 161.052 318.104 160.682C322.177 160.026 326.391 160.177 330.458 159.464C332.708 158.875 332.26 155.271 329.922 155.203C329.302 155.193 328.693 155.339 328.083 155.437C324.729 155.943 321.432 156.719 318.073 157.208C315.854 157.589 313.568 157.437 311.359 157.875C310.156 158.198 308.651 158.5 308.078 159.792C307.505 161.255 308.953 162.422 310.255 162.292L310.26 162.297ZM308.406 173.026C310.745 174.5 313.51 174.427 316 175.417C319.776 177.12 323.516 178.922 327.286 180.651C329.724 181.771 331.25 177.969 328.838 176.792C327.318 176.156 325.766 175.604 324.234 175.026C321.984 174.172 319.687 173.469 317.443 172.594C314.734 171.594 312.359 169.417 309.406 169.391C307.135 169.135 306.276 171.917 308.406 173.021V173.026ZM314.088 185.599C312.281 183.682 310.568 181.646 308.234 180.432C307.349 179.656 305.969 179.667 305.729 181.016C305.979 184 308.989 185.859 311.125 187.443C314.208 189.745 316.484 193.005 319.354 195.578C321.599 197.828 324.521 194.344 322.198 192.229C319.667 189.776 316.703 187.927 314.088 185.594V185.599ZM120.693 159.859C121.661 160.161 122.63 160.464 123.599 160.776C126.448 161.693 129.281 162.677 132.099 163.703C133.068 164.047 134.036 164.396 135.01 164.687C136.401 165.432 137.828 166.094 139.297 166.62C140.281 166.943 141.38 166.427 141.781 165.427C142.734 162.5 139.338 162.036 137.479 161.224C137.266 161.13 137.036 161.047 136.818 160.958C134.682 159.833 132.432 158.932 130.219 158.036C128.828 157.5 127.422 157.021 126.021 156.552C124.651 156.094 123.286 155.641 121.901 155.255C121.302 155.083 120.682 155.125 120.141 155.443C118.422 156.401 118.792 159.286 120.698 159.854L120.693 159.859ZM128.12 176.609C131.328 176.578 134.536 176.802 137.739 177.078C139.375 177.214 140.141 174.812 138.818 173.781C137.667 172.974 136.177 173.562 134.891 173.469C130.469 173.844 126.193 172.057 121.812 171.969C119.88 171.818 117.609 173.13 119.26 175.312C121.62 177.167 125.354 176.427 128.125 176.615L128.12 176.609ZM138.375 183.406C135.901 184.005 134.083 185.922 132.052 187.37C129.078 189.198 125.917 190.682 123.005 192.63C121.547 193.464 122.01 195.911 123.677 196.177C124.505 196.359 125.156 195.74 125.786 195.286C127.833 193.953 129.703 192.479 131.745 191.01C134.526 188.885 138.396 188.698 140.823 186.042C141.677 185.062 141.213 183.464 139.901 183.286C139.385 183.229 138.875 183.26 138.375 183.406ZM198.547 151.161C212.047 168.292 198.745 193.057 177 191.552C164.182 191.271 154.125 182.786 151.469 171.865C149.021 164.818 149.724 156.766 154.984 149.562C156.906 146.802 159.432 144.75 162.302 143.323C167.151 140.229 173.198 139.047 179.364 140.344C186.776 141.74 193.838 145.234 198.547 151.161ZM196.427 176.276C199.833 170.193 200.12 162.385 195.531 155.547C191.422 149.339 184.021 146.01 176.828 145.005C168.724 144.38 160.224 149.458 157.141 157.016C150.911 171.182 161.422 185.979 176.531 186.516C177.234 186.589 177.917 186.615 178.594 186.62C178.88 186.583 179.161 186.547 179.448 186.495C186.823 185.12 192.792 181.224 196.432 176.271L196.427 176.276ZM175.693 70.6823C171.838 67.5156 167.766 64.6562 163.37 62.3281C157.521 58.8073 153.229 73.5677 150.302 83.9791C150.38 83.9218 150.453 83.8645 150.536 83.8073C158.354 78.3645 166.802 73.901 175.693 70.6875V70.6823ZM303.63 92.9791C297.203 75.151 287.937 58.4323 276.786 51.2135C273.958 53.8958 269.312 62.0833 264.062 70.8593C271.312 73.2187 278.385 76.2708 285.182 80.1562C291.614 83.776 297.859 88.0729 303.63 92.9791Z" fill="white"/>
</g>
</g>
<defs>
<clipPath id="clip0_116_195">
<rect width="431" height="344" fill="white"/>
</clipPath>
</defs>
</svg>
