<svg width="431" height="344" viewBox="0 0 431 344" fill="none" xmlns="http://www.w3.org/2000/svg">
<g clip-path="url(#clip0_118_196)">
<path d="M116.292 -173.521C119.422 -169.146 108.396 -162.271 105.99 -158.708C103.573 -156.969 96.3229 -147.714 91.2656 -143.896C93.7969 -136.547 95.0104 -128.771 94.599 -120.917C93.5521 -110.359 89.9688 -100.797 84.5521 -92.6199C87.1719 -90.8855 89.7656 -88.8022 91.0677 -88.2918C112.359 -74.1824 117.651 -66.8491 86.8281 -68.2761C78.9167 -68.4897 71.1094 -68.9845 63.2656 -69.6459C62.1042 -69.9845 60.3229 -69.9168 58.5677 -69.9584C45.9219 -63.7345 31.1979 -61.3282 16.4531 -63.8959C-2.67707 -66.4532 -12.1927 -78.5574 -21.0677 -93.8647C-23.1614 -94.4793 -24.9583 -95.0157 -25.7187 -95.0157C-73.8698 -103.557 -125.214 -99.1511 -170.219 -79.5522C-182.339 -74.073 -193.833 -67.3595 -204.865 -59.9532C-208.104 -57.7553 -211.344 -55.5209 -214.318 -52.9688C-215.073 -52.4897 -215.75 -51.6199 -216.453 -50.7813C-217.292 -41.9949 -216.854 -33.0366 -215.333 -24.3595C-211.156 -1.33343 -194.714 11.5728 -176.51 -8.98968C-166.333 -20.1251 -163.333 -35.6563 -153.714 -47.1772C-146.974 -56.6303 -130.167 -71.3334 -123.307 -54.0522C-119.099 -33.4272 -131.13 -13.6355 -140.026 4.19782C-153.932 30.9687 -175.802 62.2187 -209.854 59.0676C-259.333 51.2655 -258.63 -17.4428 -251.578 -56.6876C-257.089 -68.9272 -265.276 -88.9636 -275 -74.9168C-289.161 -43.9689 -297.5 -50.9324 -318.755 -71.2241C-329.818 -81.7136 -344.667 -93.4116 -360.724 -87.1824C-366.172 -85.3595 -373.552 -85.6824 -376.932 -90.9636C-381.339 -100.917 -373.505 -112.932 -363.839 -116.307C-351.016 -121.453 -339.208 -113.005 -328.083 -107.766C-323.292 -104.886 -322.245 -110.318 -320.687 -113.74C-317.917 -120.016 -315.271 -126.339 -312.656 -132.677C-320.354 -137.594 -323.25 -149.646 -331.297 -154.729C-336.375 -159.245 -340.896 -156.531 -345.927 -158.745C-351.714 -163.537 -347.88 -173.469 -343.411 -177.984C-330.266 -189.172 -313.234 -155.839 -308.792 -172.12C-302.266 -195.229 -293 -238.724 -259.766 -225.109C-253.182 -221.578 -242.573 -214.099 -238.979 -206.302C-230.406 -211.62 -221.49 -216.339 -212.182 -220.37C-176.531 -236.323 -137.719 -244.406 -98.6406 -241.849C-69.25 -240.75 -39.3073 -235.599 -13.1979 -221.563C3.2396 -213.787 17.7136 -202.88 31.2761 -190.922C31.6823 -190.693 32.1302 -190.417 32.5052 -190.089C38.8646 -190.073 51.1198 -185.844 53.0729 -184.948C61.5104 -181.396 69.1615 -176.016 75.5417 -169.396C81.3594 -170.927 89.8542 -171.182 92.8698 -172.047C99.5521 -172.24 110.479 -176.005 116.292 -173.521Z" fill="black"/>
<mask id="mask0_118_196" style="mask-type:luminance" maskUnits="userSpaceOnUse" x="50" y="-10" width="331" height="364">
<path d="M50 -10H381V353.299H50V-10Z" fill="white"/>
</mask>
<g mask="url(#mask0_118_196)">
<path d="M371.089 -9.60409C359.867 -9.26384 349.325 -1.98238 342.143 6.26416C325.087 27.7188 326.398 71.6921 326.287 104.95C318.9 99.2527 278.534 76.0907 226.277 80.1985C198.481 82.8091 176.866 95.3615 155.293 113.098C153.351 98.7949 147.437 79.784 144.294 73.4923C140.341 69.8671 137.829 74.6863 137.575 78.3796C134.297 87.9315 129.768 96.9947 125.017 105.897C109.167 104.468 92.3525 108.396 80.0043 116.952C74.8015 112.572 65.627 102.03 58.6054 95.2872C52.1034 89.8308 49.9629 98.5908 50.829 103.8C52.3818 115.727 53.7799 128.082 57.3124 139.681C40.3925 168.665 58.2156 219.375 108.716 226.588C108.821 226.588 108.926 226.588 109.031 226.588C112.291 230.907 116.232 234.903 120.068 238.442C118.453 252.194 106.631 281.042 105.994 288.688C105.078 299.292 107.169 321.742 117.34 327.304C132.824 328.789 128.5 305.379 130.535 295.673C133.393 283.188 141.714 270.587 149.54 259.494C149.948 258.678 159.89 272.665 164.221 283.349C167.864 292.623 171.632 312.246 172.603 318.822C173.494 325.677 174.175 331.09 170.376 334.622C164.307 340.543 162.086 341.459 161.56 344.267C160.775 348.332 164.221 354.475 173.655 350.46C193.934 342.108 194.596 332.086 197.2 316.539C200.325 296.836 205.756 283.782 203.474 276.977C198.759 258.931 197.59 258.43 200.059 242.314C202.298 228.067 221.39 224.114 232.735 218.886C235.705 218.039 240.141 216.647 245.102 215.236C256.182 233.876 274.333 264.437 267.85 284.982C264.967 292.214 257.141 304.451 267.114 309.456C276.919 311.943 288.772 300.213 292.224 291.732C297.217 278.431 294.34 261.604 292.385 246.954C301.758 263.75 311.786 286.702 305.63 304.928C303.935 310.798 297.347 313.731 294.643 316.391C294.043 316.874 293.48 317.758 292.8 318.29C291.21 319.657 290.418 321.538 291.29 323.487C293.579 330.991 309.219 326.704 314.038 325.906C323.812 324.57 328.502 317.919 330.754 308.887C333.971 292.87 338.678 277.231 344.339 261.913C353.464 240.329 351.689 246.41 349.319 223.761C347.043 180.654 351.54 186.216 352.641 173.583C360.046 128.205 343.652 45.1027 377.183 4.53195C382.07 -1.92671 380.152 -10.0062 371.089 -9.60409ZM70.4524 164.959C70.4401 165.027 70.4277 165.108 70.4215 165.2C70.4277 165.12 70.4339 165.039 70.4524 164.959ZM79.3114 177.425C79.3362 177.437 79.3857 177.449 79.429 177.462L79.3114 177.425ZM153.073 106.732C153.066 106.72 153.073 106.72 153.066 106.695C153.073 106.707 153.073 106.72 153.073 106.732ZM308.767 284.661C308.643 283.881 308.575 283.529 308.829 284.642C308.81 284.648 308.786 284.655 308.767 284.661Z" fill="black"/>
</g>
<path d="M109.827 179.666C109.061 179.581 100.538 175.877 105.593 174.22C110.706 172.241 114.366 171.451 112.511 176.187C111.962 177.371 111.42 179.556 109.827 179.666ZM106.154 175.871C106.333 175.726 106.511 175.671 106.103 175.835C106.122 175.847 106.142 175.859 106.154 175.871ZM111.133 174.481C111.153 174.384 111.159 174.402 110.942 174.42C111.153 174.614 111.095 174.651 111.133 174.481Z" fill="white"/>
<path d="M86.0033 189.657C85.812 189.387 93.8971 182.602 93.9835 182.666C94.4156 183.001 86.207 189.941 86.0033 189.657Z" fill="white"/>
<path d="M95.8299 184.666C96.2944 184.757 95.804 185.186 94.404 187.041C84.0423 200.981 95.1201 184.614 95.8299 184.666Z" fill="white"/>
<path d="M93.0408 195.638C92.4428 195.28 98.6138 185.893 98.6393 185.851C98.6265 185.62 99.3072 185.449 98.8301 186.337C92.939 195.577 93.4416 195.796 93.0408 195.638Z" fill="white"/>
<path d="M130.713 186.534C127.738 184.813 124.924 182.718 122.012 180.9C121.574 179.148 132.928 187.827 130.713 186.534Z" fill="white"/>
<path d="M132.755 181.658C120.585 178.487 118.9 177.073 132.861 181.3C133.103 181.364 133.004 181.722 132.755 181.658Z" fill="white"/>
<path d="M134.801 176.666C127.009 176.641 125.23 175.83 126.271 175.666C128.724 175.723 129.393 175.977 134.807 176.108C135.068 176.108 135.062 176.674 134.801 176.666Z" fill="white"/>
<path d="M270.765 194.607C266.646 176.678 273.371 162.544 273.327 162.126C273.026 158.061 260.329 181.375 275.236 213.801C279.38 222.938 289.759 240.351 290.934 239.645C292.196 238.81 275.11 216.429 270.765 194.607Z" fill="white"/>
<path d="M82.0032 178.666C74.2825 178.666 68 172.387 68 164.666C68 156.95 74.2825 150.666 82.0032 150.666C89.7238 150.666 96 156.95 96 164.666C96 172.387 89.7238 178.666 82.0032 178.666ZM82.0032 154.498C76.3956 154.498 71.8351 159.062 71.8351 164.672C71.8351 170.282 76.3956 174.839 82.0032 174.839C87.6107 174.839 92.1775 170.276 92.1775 164.672C92.1775 159.062 87.6107 154.498 82.0032 154.498Z" fill="white"/>
<path d="M127.497 165.666C120.052 165.666 114 159.387 114 151.666C114 143.95 120.052 137.666 127.497 137.666C134.942 137.666 141 143.95 141 151.666C141 159.387 134.942 165.666 127.497 165.666ZM127.497 141.498C122.09 141.498 117.692 146.062 117.692 151.666C117.692 157.276 122.09 161.839 127.497 161.839C132.904 161.839 137.308 157.276 137.308 151.666C137.308 146.062 132.904 141.498 127.497 141.498Z" fill="white"/>
<path d="M77 162.166C77 164.166 74 164.166 74 162.166C74 160.166 77 160.166 77 162.166Z" fill="white"/>
<path d="M89 170.668C89 171.998 87 171.998 87 170.668C86.9928 169.331 89 169.331 89 170.668Z" fill="white"/>
<path d="M124 147.168C124 149.165 121 149.165 121 147.168C120.994 145.165 124 145.165 124 147.168Z" fill="white"/>
<path d="M134 156.166C134 158.166 133 158.166 133 156.166C133 154.166 134 154.166 134 156.166Z" fill="white"/>
</g>
<defs>
<clipPath id="clip0_118_196">
<rect width="431" height="344" fill="white"/>
</clipPath>
</defs>
</svg>
