<svg width="1029" height="931" viewBox="0 0 1029 931" fill="none" xmlns="http://www.w3.org/2000/svg">
<mask id="mask0_87_3" style="mask-type:luminance" maskUnits="userSpaceOnUse" x="341" y="583" width="349" height="348">
<path d="M341 583H689.686V930.973H341V583Z" fill="white"/>
</mask>
<g mask="url(#mask0_87_3)">
<path d="M425.146 641.667C423.975 649.891 428.421 660.213 421.265 669.01C420.756 669.634 421.004 671.075 421.222 672.066C424.381 686.433 424.411 701.137 425.852 715.687C426.373 721.021 427.801 721.53 432.631 718.906C464.539 701.521 498.949 690.72 534.358 683.851C561.744 678.542 589.323 679.427 616.034 689.75C626.63 693.849 627.314 692.793 627.416 681.325C627.583 661.966 623.698 642.804 624.578 623.415C624.728 619.957 623.296 618.162 619.752 617.61C615.555 616.952 612.294 613.977 614.02 610.027C616.995 603.201 613.713 598.61 610.52 593.46C608.887 590.844 604.471 587.471 608.233 584.838C612.507 581.855 613.909 587.664 616.252 590.019C619.376 593.148 619.838 598.897 626.104 598.927C630.887 598.948 634.341 598.371 634.627 592.536C634.751 589.925 634.298 585.663 638.402 586.155C642.659 586.672 642.018 590.963 641.313 593.84C638.962 603.445 640.475 613.614 636.393 623.056C634.974 626.339 636.226 630.784 636.277 634.691C636.495 651.677 637.192 668.672 636.735 685.642C636.534 693.216 639.406 696.978 645.882 699.859C654.461 703.671 662.749 708.113 670.404 713.704C681.804 722.026 686.019 734.417 688.857 747.189C690.537 754.742 685.053 759.863 679.21 763.796C671.785 768.792 663.215 770.327 654.525 770.297C637.979 770.246 621.949 774.691 605.519 775.456C600.659 775.683 601.116 778.564 601.954 782.026C606.241 799.791 612.358 816.987 618.406 834.191C622.159 844.873 623.283 856.085 625.681 867.032C628.579 880.252 630.31 893.717 633.148 906.955C635.623 918.521 636.983 930.126 637.209 941.924C637.265 945.104 637.44 947.69 633.136 947.737C629.447 947.784 626.651 947.587 626.002 942.77C623.535 924.407 621.949 905.796 617.722 887.827C612.259 864.587 610.229 840.492 600.064 818.303C595.448 808.224 593.302 796.978 590.4 786.164C588.724 779.961 585.399 778.294 578.996 778.795C553.742 780.782 528.391 781.53 503.249 784.988C500.675 785.343 498.034 785.215 495.422 785.3C491.413 785.437 487.549 784.556 487.459 779.872C487.382 775.426 491.092 773.9 495.033 773.537C505.702 772.554 516.363 771.464 527.044 770.771C558.312 768.754 589.395 765.176 620.479 761.269C634.704 759.478 649.075 758.658 663.317 756.687C676.034 754.926 678.021 750.583 673.773 738.833C667.673 721.953 652.7 716.149 638.744 709.767C620.941 701.633 601.488 697.871 582.518 693.272C572.558 690.857 561.885 692.472 551.404 693.81C532.413 696.234 513.866 700.226 495.726 706.108C475.897 712.537 456.179 719.188 437.85 729.549C429.882 734.05 428.01 739.32 429.134 747.993C432.092 770.814 437.175 793.268 440.325 816.038C441.868 827.194 443.197 838.461 437.324 848.989C435.965 851.421 434.854 855.042 431.259 853.871C427.095 852.52 429.489 849.126 430.143 846.566C432.533 837.247 431.737 827.925 430.669 818.525C428.091 795.935 426.052 773.289 421.872 750.908C421.449 748.668 421.727 745.715 419.367 744.638C416.341 743.248 414.717 746.266 412.913 747.92C401.462 758.41 395.311 772.391 388.805 785.971C384.086 795.828 380.555 806.266 375.242 815.892C370.861 823.838 370.019 832.875 368.164 841.488C360.987 874.76 350.613 907.57 352.511 942.244C352.738 946.326 351.246 947.908 347.155 947.797C343.539 947.694 341.167 947.032 341.145 942.655C341.038 921.975 342.312 901.424 346.813 881.188C351.34 860.846 356.2 840.577 360.735 820.244C362.475 812.443 367.437 806.181 370.177 798.824C376.298 782.432 384.71 767.053 393.31 751.849C397.756 743.996 405.257 738.786 412.002 733.054C415.11 730.412 416.465 727.745 415.939 723.62C413.896 707.561 412.02 691.477 410.28 675.375C409.848 671.382 408.626 668.382 404.646 666.843C402.385 665.967 400.761 664.295 399.91 661.91C398.046 656.691 395.55 651.883 391.464 647.967C389.904 646.475 388.895 644.351 390.989 642.496C392.678 641.004 394.926 641.705 395.866 643.188C402.47 653.584 409.647 641.641 416.521 643.727C417.743 644.099 417.884 641.261 417.914 639.756C418.012 634.802 418.085 629.844 418.059 624.889C418.042 622.692 417.987 620.44 420.808 620.175C423.295 619.953 424.933 621.761 425.044 623.923C425.326 629.386 425.138 634.875 425.138 641.684L425.146 641.667ZM638.992 731.011C638.962 727.489 636.91 725.698 633.584 725.749C630.135 725.8 628.353 728.057 628.519 731.361C628.682 734.563 630.456 736.64 633.82 736.773C637.342 736.345 639.013 734.379 638.992 731.002V731.011ZM557.534 737.713C554.7 737.828 552.533 739.436 552.426 742.432C552.302 745.77 554.409 747.737 557.649 747.818C560.902 747.899 562.787 745.924 563.309 742.659C562.714 739.466 560.8 737.572 557.534 737.713Z" fill="white"/>
</g>
<path d="M194.824 288.668L216.846 317.905C216.846 317.905 216.829 316.896 216.795 314.879C216.769 312.853 216.727 310.1 216.658 306.62C216.59 303.133 216.521 299.226 216.453 294.891C216.393 290.549 216.333 286.052 216.265 281.401C216.205 276.751 216.145 272.228 216.077 267.826C216.017 263.427 215.974 259.427 215.94 255.823C215.914 252.224 215.889 249.3 215.855 247.052C215.82 244.795 215.803 243.543 215.803 243.291C215.803 242.914 215.82 241.953 215.855 240.401C215.889 238.854 215.932 237.033 215.991 234.947C216.06 232.852 216.103 230.822 216.128 228.86C216.162 226.902 216.197 225.261 216.231 223.936C216.265 222.602 216.282 221.935 216.282 221.935L219.308 220.978L249.982 222.021L253.213 226.398C253.589 231.527 253.884 237.417 254.102 244.06C254.329 250.707 254.504 257.798 254.632 265.329C254.756 272.852 254.82 280.508 254.82 288.292C254.82 296.08 254.786 303.705 254.718 311.168C254.658 318.636 254.581 325.646 254.478 332.199C254.384 338.743 254.295 344.5 254.205 349.467C254.111 354.438 254.034 358.332 253.965 361.145C253.897 363.962 253.863 365.368 253.863 365.368L249.127 366.804C249.127 366.804 248.349 366.877 246.801 367.027C245.25 367.185 243.219 367.292 240.715 367.352C238.218 367.42 235.483 367.373 232.508 367.215C229.533 367.065 226.583 366.689 223.668 366.086C220.762 365.479 218.171 364.582 215.906 363.385L192.824 329.959L177.932 360.632L173.179 362.051C173.179 362.051 172.067 362.15 169.845 362.342C167.631 362.526 164.579 362.543 160.68 362.393C156.791 362.235 152.32 361.551 147.259 360.341C147.13 360.341 147.053 359.076 147.019 356.546C146.994 354.015 146.994 350.553 147.019 346.15C147.053 341.752 147.13 336.691 147.259 330.968C147.383 325.236 147.507 319.098 147.635 312.553C147.772 306.001 147.913 299.311 148.062 292.481C148.22 285.642 148.379 278.948 148.541 272.391C148.699 265.838 148.857 259.7 149.02 253.977C149.178 248.245 149.319 243.197 149.447 238.828C149.571 234.464 149.661 231.031 149.721 228.535C149.789 226.03 149.823 224.774 149.823 224.774L175.931 223.919L178.599 318.572L188.755 299.781L194.824 288.668Z" fill="white"/>
<path d="M373.947 259.055C373.947 259.055 373.392 259.102 372.289 259.192C371.182 259.286 369.092 259.461 366.014 259.722C362.945 259.974 358.465 260.26 352.575 260.576C346.694 260.884 338.94 261.295 329.322 261.807C329.322 261.807 329.288 262.603 329.22 264.184C329.16 265.757 329.177 267.86 329.271 270.493C329.374 273.118 329.656 275.947 330.126 278.991C330.605 282.026 331.348 285.026 332.366 288.001L356.952 287.916C356.952 287.916 357.538 287.899 358.713 287.864C359.885 287.83 361.248 287.805 362.8 287.779C364.347 287.745 365.706 287.711 366.869 287.676C368.04 287.642 368.6 287.591 368.544 287.522C368.476 287.467 368.519 287.911 368.681 288.856C368.839 289.805 369.01 290.916 369.194 292.19C369.387 293.455 369.562 294.562 369.724 295.507C369.882 296.456 369.964 296.926 369.964 296.926V308.706C369.964 308.706 366.035 308.912 358.183 309.322C350.34 309.732 338.666 310.002 323.167 310.126L322.5 334.148L324.86 336.713L371.195 337.089C371.195 337.089 370.784 337.046 369.964 336.952C369.143 336.849 368.668 336.772 368.544 336.713C368.476 336.644 368.805 336.849 369.536 337.328C370.263 337.798 370.989 338.268 371.708 338.747C372.434 339.226 372.802 339.465 372.802 339.465L373.759 366.411C373.759 366.411 373.883 366.377 374.135 366.309C374.383 366.249 374.383 366.189 374.135 366.121C373.883 366.061 373.011 366.018 371.519 365.984C370.036 365.958 367.57 365.933 364.116 365.898C360.671 365.864 355.849 365.881 349.652 365.95C341.923 366.005 334.7 365.954 327.989 365.796C321.286 365.633 315.371 365.428 310.241 365.18C305.121 364.928 301.013 364.68 297.914 364.428C294.811 364.18 293.007 363.983 292.494 363.847C291.797 363.667 291.113 362.987 290.442 361.812C289.78 360.641 289.117 359.17 288.459 357.401C287.796 355.623 287.117 353.819 286.424 351.981C285.911 350.536 285.45 347.912 285.039 344.116C284.629 340.312 284.296 335.704 284.048 330.301C283.795 324.889 283.573 318.982 283.381 312.588C283.184 306.193 283.056 299.679 282.988 293.045C282.928 286.403 282.885 279.978 282.851 273.776C282.825 267.565 282.825 261.902 282.851 256.781C282.885 251.651 282.919 247.441 282.953 244.146C282.988 240.854 283.03 238.828 283.09 238.076C283.227 236.05 283.607 233.972 284.236 231.852C284.873 229.732 285.488 227.963 286.082 226.535C286.685 225.112 286.988 224.398 286.988 224.398L368.442 222.312L374.426 222.688C374.426 222.688 374.55 223.466 374.802 225.013C375.05 226.565 375.319 228.621 375.606 231.185C375.888 233.75 376.076 236.635 376.17 239.837C376.273 243.03 376.162 246.291 375.845 249.617C375.525 252.934 374.892 256.08 373.947 259.055Z" fill="white"/>
<path d="M508.361 292.942C508.361 292.942 508.626 294.054 509.164 296.276C509.699 298.491 510.216 301.607 510.72 305.629C511.233 309.643 511.438 314.417 511.336 319.957C511.242 325.488 510.592 331.609 509.387 338.32C508.19 345.022 506.138 352.143 503.231 359.675L499.812 361.487L461.274 362.427L410.579 359.299C410.579 354.49 410.545 348.903 410.476 342.543C410.416 336.182 410.34 329.386 410.237 322.145C410.143 314.896 410.053 307.505 409.963 299.969C409.869 292.438 409.775 285.06 409.673 277.845C409.579 270.63 409.485 263.859 409.382 257.533C409.288 251.207 409.211 245.624 409.143 240.777C409.083 235.934 409.04 232.139 409.006 229.39C408.98 226.633 408.997 225.227 409.057 225.167L410.391 223.645C415.7 222.188 421.35 221.209 427.335 220.705C433.319 220.192 439.295 219.969 445.27 220.038C451.254 220.098 456.982 220.303 462.453 220.653C467.933 220.995 472.857 221.346 477.226 221.696C481.59 222.051 485.099 222.256 487.758 222.312L499.06 224.021C499.06 224.021 499.265 224.769 499.675 226.261C500.085 227.744 500.556 229.783 501.094 232.382C501.628 234.973 502.12 237.883 502.565 241.119C503.009 244.346 503.274 247.749 503.368 251.327C503.471 254.896 503.3 258.422 502.855 261.91C502.411 265.389 501.522 268.612 500.188 271.587C499.615 272.16 498.743 272.917 497.572 273.861C496.409 274.81 495.161 275.823 493.828 276.905C492.503 277.978 491.254 278.991 490.083 279.948C488.908 280.897 488.036 281.654 487.467 282.222L508.361 292.942ZM432.037 272.442L454.537 273.759C456.302 270.784 457.581 267.621 458.367 264.269C459.162 260.918 459.295 257.665 458.76 254.507C458.222 251.339 456.815 248.552 454.537 246.146C453.896 246.146 452.708 246.193 450.964 246.283C449.228 246.377 447.271 246.488 445.082 246.625C442.902 246.753 440.782 246.877 438.722 247.001C436.67 247.129 434.96 247.236 433.592 247.326C432.233 247.42 431.558 247.462 431.558 247.462C431.558 247.462 431.507 248.086 431.404 249.326C431.31 250.557 431.22 252.156 431.13 254.113C431.036 256.075 430.994 258.196 430.994 260.474C430.994 262.756 431.066 264.953 431.216 267.074C431.374 269.194 431.648 270.985 432.037 272.442ZM436.311 326.454L465.548 328.164C467.826 324.368 469.468 320.307 470.472 315.973C471.485 311.63 471.66 307.39 471.002 303.252C470.34 299.106 468.523 295.447 465.548 292.276C464.727 292.276 463.206 292.34 460.983 292.464C458.769 292.592 456.238 292.733 453.392 292.891C450.541 293.053 447.771 293.212 445.082 293.37C442.389 293.532 440.158 293.673 438.38 293.797C436.61 293.925 435.73 293.985 435.73 293.985C435.73 293.985 435.666 294.797 435.542 296.413C435.413 298.02 435.289 300.106 435.165 302.671C435.037 305.236 434.977 307.988 434.977 310.929C434.977 313.87 435.067 316.721 435.251 319.478C435.443 322.226 435.798 324.552 436.311 326.454Z" fill="white"/>
<path d="M538.921 363.658C538.921 363.658 538.904 362.427 538.87 359.965C538.836 357.494 538.801 354.092 538.767 349.758C538.733 345.428 538.699 340.414 538.665 334.712C538.639 329.014 538.596 322.876 538.528 316.298C538.468 309.711 538.425 302.97 538.391 296.071C538.357 289.176 538.34 282.376 538.34 275.673C538.34 268.963 538.34 262.585 538.34 256.541C538.34 250.488 538.34 245.077 538.34 240.298C538.34 235.524 538.365 231.587 538.425 228.484C538.494 225.385 538.588 223.453 538.716 222.688C540.939 222.508 544.153 222.397 548.359 222.363C552.565 222.329 557.404 222.44 562.875 222.688C568.355 222.94 574.117 223.448 580.161 224.209C586.201 224.974 592.24 226.022 598.284 227.355C604.337 228.68 610.018 230.399 615.331 232.519C620.652 234.639 625.273 237.216 629.197 240.247C630.586 242.722 631.864 245.872 633.027 249.702C634.198 253.532 635.241 257.772 636.156 262.423C637.079 267.073 637.887 271.903 638.584 276.904C639.289 281.897 639.857 286.834 640.293 291.711C640.738 296.58 641.02 301.166 641.148 305.475C641.272 310.788 641.191 315.562 640.909 319.803C640.623 324.043 639.926 328.001 638.823 331.668C637.716 335.34 636.07 338.982 633.882 342.594C631.702 346.197 628.812 350.057 625.213 354.169C624.324 355.255 622.401 356.204 619.451 357.024C616.511 357.845 612.903 358.576 608.629 359.213C604.363 359.841 599.712 360.393 594.677 360.871C589.65 361.341 584.525 361.752 579.306 362.102C574.083 362.444 569.069 362.714 564.26 362.906C559.447 363.103 555.13 363.261 551.3 363.385C547.47 363.513 544.448 363.59 542.238 363.624C540.024 363.65 538.921 363.658 538.921 363.658ZM566.825 330.352L589.325 331.668C590.214 330.224 590.971 327.984 591.599 324.949C592.236 321.906 592.745 318.452 593.121 314.588C593.497 310.724 593.711 306.723 593.771 302.585C593.839 298.439 593.728 294.464 593.446 290.668C593.159 286.872 592.685 283.551 592.027 280.7C591.364 277.853 590.462 275.823 589.325 274.613C588.684 274.613 587.496 274.665 585.752 274.767C584.016 274.861 582.059 274.968 579.87 275.092C577.69 275.22 575.57 275.344 573.51 275.468C571.458 275.596 569.748 275.708 568.381 275.81C567.021 275.904 566.346 275.947 566.346 275.947C566.346 275.947 566.312 276.802 566.243 278.512C566.183 280.221 566.124 282.521 566.055 285.402C565.995 288.274 565.936 291.484 565.867 295.028C565.807 298.576 565.782 302.183 565.782 305.851C565.782 309.523 565.807 313.023 565.867 316.349C565.936 319.666 566.047 322.564 566.209 325.034C566.367 327.497 566.572 329.27 566.825 330.352Z" fill="white"/>
<path d="M759.142 259.055C759.142 259.055 758.587 259.102 757.484 259.192C756.377 259.286 754.286 259.461 751.209 259.722C748.14 259.974 743.66 260.26 737.77 260.576C731.888 260.884 724.135 261.295 714.517 261.807C714.517 261.807 714.483 262.603 714.415 264.184C714.355 265.757 714.372 267.86 714.466 270.493C714.568 273.118 714.851 275.947 715.321 278.991C715.8 282.026 716.543 285.026 717.561 288.001L742.147 287.916C742.147 287.916 742.733 287.899 743.908 287.864C745.079 287.83 746.443 287.805 747.994 287.779C749.542 287.745 750.901 287.711 752.064 287.676C753.235 287.642 753.795 287.591 753.739 287.522C753.671 287.467 753.714 287.911 753.876 288.856C754.034 289.805 754.205 290.916 754.389 292.19C754.581 293.455 754.757 294.562 754.919 295.507C755.077 296.456 755.158 296.926 755.158 296.926V308.706C755.158 308.706 751.23 308.912 743.378 309.322C735.535 309.732 723.861 310.002 708.362 310.126L707.695 334.148L710.055 336.713L756.389 337.089C756.389 337.089 755.979 337.046 755.158 336.952C754.338 336.849 753.863 336.772 753.739 336.713C753.671 336.644 754 336.849 754.731 337.328C755.458 337.798 756.184 338.268 756.902 338.747C757.629 339.226 757.997 339.465 757.997 339.465L758.954 366.411C758.954 366.411 759.078 366.377 759.33 366.309C759.578 366.249 759.578 366.189 759.33 366.121C759.078 366.061 758.206 366.018 756.714 365.984C755.231 365.958 752.765 365.933 749.311 365.898C745.866 365.864 741.044 365.881 734.846 365.95C727.118 366.005 719.894 365.954 713.184 365.796C706.481 365.633 700.565 365.428 695.436 365.18C690.315 364.928 686.208 364.68 683.109 364.428C680.005 364.18 678.202 363.983 677.689 363.847C676.992 363.667 676.308 362.987 675.637 361.812C674.974 360.641 674.312 359.17 673.654 357.401C672.991 355.623 672.311 353.819 671.619 351.981C671.106 350.536 670.644 347.912 670.234 344.116C669.824 340.312 669.49 335.704 669.242 330.301C668.99 324.889 668.768 318.982 668.576 312.588C668.379 306.193 668.251 299.679 668.182 293.045C668.123 286.403 668.08 279.978 668.046 273.776C668.02 267.565 668.02 261.902 668.046 256.781C668.08 251.651 668.114 247.441 668.148 244.146C668.182 240.854 668.225 238.828 668.285 238.076C668.422 236.05 668.802 233.972 669.431 231.852C670.067 229.732 670.683 227.963 671.277 226.535C671.88 225.112 672.183 224.398 672.183 224.398L753.637 222.312L759.621 222.688C759.621 222.688 759.745 223.466 759.997 225.013C760.245 226.565 760.514 228.621 760.801 231.185C761.083 233.75 761.271 236.635 761.365 239.837C761.467 243.03 761.356 246.291 761.04 249.617C760.719 252.934 760.087 256.08 759.142 259.055Z" fill="white"/>
<path d="M853.12 367.266L827.285 364.051L785.703 246.231L787.225 242.059C787.225 242.059 787.918 241.572 789.311 240.589C790.713 239.61 792.615 238.379 795.022 236.896C797.424 235.404 800.189 233.852 803.314 232.245C806.447 230.629 809.751 229.125 813.231 227.731C816.719 226.329 820.198 225.316 823.677 224.688C823.746 224.688 824.143 225.658 824.874 227.595C825.601 229.522 826.503 232.083 827.576 235.271C828.644 238.464 829.833 241.991 831.132 245.855C832.431 249.719 833.731 253.566 835.03 257.396C836.33 261.226 837.514 264.739 838.587 267.928C839.655 271.121 840.506 273.703 841.134 275.673C841.771 277.635 842.092 278.614 842.092 278.614L863.088 227.919L868.593 226.586C868.593 226.586 869.144 226.543 870.252 226.449C871.354 226.346 873.013 226.441 875.227 226.723C877.45 227.009 880.202 227.74 883.485 228.911C886.776 230.087 890.606 231.967 894.975 234.553C895.043 234.553 894.74 235.613 894.069 237.734C893.406 239.854 892.47 242.739 891.265 246.385C890.068 250.023 888.691 254.199 887.144 258.918C885.592 263.628 883.93 268.608 882.152 273.861C880.382 279.119 878.612 284.419 876.834 289.762C875.065 295.109 873.355 300.251 871.705 305.184C870.063 310.121 868.563 314.601 867.208 318.623C865.849 322.636 864.746 325.958 863.891 328.591C863.036 331.215 862.511 332.874 862.318 333.566C862.258 333.887 861.976 334.934 861.463 336.712C860.959 338.482 860.361 340.628 859.668 343.158C858.971 345.688 858.24 348.351 857.48 351.143C856.714 353.925 856.001 356.554 855.342 359.025C854.68 361.487 854.146 363.479 853.735 364.992C853.325 366.505 853.12 367.266 853.12 367.266Z" fill="white"/>
<path d="M365.545 143.237C361.749 143.305 359.082 142.395 357.543 140.501C356.013 138.612 355 135.949 354.5 132.516C353.837 128.208 353.525 123.908 353.56 119.608C353.594 115.299 353.684 111.033 353.833 106.801C353.979 102.937 354.038 99.0561 354.004 95.1578C353.97 91.251 354.201 87.3955 354.705 83.5998C354.851 82.0738 355.184 80.3426 355.697 78.4021C356.21 76.4657 357.27 75.1706 358.877 74.5209C360.335 73.9396 361.702 74.0721 362.98 74.9141C364.254 75.7476 365.22 76.7863 365.87 78.0259C366.678 79.4878 367.084 81.0693 367.084 82.7791C367.084 84.4888 367.118 86.1473 367.187 87.7545C367.255 90.0926 367.323 92.4307 367.392 94.7646C367.469 97.1027 367.4 99.4322 367.187 101.758C368.862 99.8682 370.901 98.3722 373.308 97.2779C375.723 96.1837 378.206 96.2179 380.762 97.3805C383.382 98.556 385.314 100.236 386.558 102.424C387.798 104.613 388.512 107.058 388.695 109.759C388.875 112.452 388.653 115.222 388.029 118.069C387.413 120.92 386.575 123.621 385.515 126.173C384.455 128.729 383.301 130.875 382.062 132.619C380.236 135.32 377.881 137.748 375 139.903C372.128 142.057 368.973 143.168 365.545 143.237ZM365.323 128.686C367.075 128.541 368.644 127.81 370.025 126.498C371.414 125.19 372.598 123.655 373.581 121.899C374.573 120.146 375.282 118.577 375.718 117.197C376.082 116.171 376.3 115.077 376.368 113.914C376.445 112.743 376.248 111.828 375.77 111.178C375.299 110.52 374.372 110.443 372.983 110.956C371.307 111.619 370.012 112.644 369.101 114.034C368.187 115.414 367.511 116.983 367.067 118.736C366.631 120.48 366.306 122.249 366.092 124.036C365.874 125.827 365.618 127.378 365.323 128.686Z" fill="white"/>
<path d="M398.487 158.556C397.026 156.949 395.859 154.555 394.982 151.375C394.102 148.203 393.444 144.596 392.999 140.552C392.563 136.509 392.307 132.311 392.23 127.968C392.161 123.625 392.2 119.449 392.349 115.436C392.495 111.426 392.679 107.891 392.897 104.835C392.973 103.664 393.085 101.946 393.221 99.6887C393.367 97.4232 393.585 94.9184 393.871 92.1828C394.166 89.4471 394.645 86.7543 395.307 84.0956C395.966 81.4283 396.846 79.0774 397.94 77.0342C399.035 74.9953 400.454 73.5377 402.198 72.6572C403.95 71.7809 406.066 71.7809 408.541 72.6572C409.999 73.2385 410.986 74.3926 411.499 76.1109C412.012 77.8207 412.208 79.8468 412.097 82.1806C411.995 84.5187 411.704 86.891 411.225 89.2933C410.755 91.6998 410.268 93.9225 409.755 95.9614C409.242 98.0045 408.874 99.569 408.661 100.663C407.566 106.066 407.019 111.725 407.019 117.641C407.019 123.549 407.25 129.328 407.72 134.978C408.199 140.633 408.511 145.861 408.661 150.674C408.729 151.845 408.49 153.196 407.943 154.726C407.395 156.252 406.647 157.599 405.703 158.761C404.754 159.932 403.66 160.595 402.42 160.745C401.176 160.89 399.864 160.163 398.487 158.556Z" fill="white"/>
<path d="M450.792 143.134C449.548 142.839 448.595 142.125 447.937 140.997C447.287 139.868 446.829 138.56 446.569 137.064C446.317 135.56 446.15 134.102 446.073 132.687C446.005 131.264 445.97 130.114 445.97 129.234C444.44 131.345 442.491 133.149 440.123 134.654C437.751 136.15 435.267 137.094 432.668 137.492C430.078 137.894 427.65 137.586 425.385 136.568C423.128 135.543 421.268 133.606 419.811 130.755C418.43 127.84 417.682 124.703 417.571 121.352C417.468 118 417.887 114.666 418.836 111.349C419.781 108.024 421.059 105.083 422.666 102.527C424.192 100.193 426.051 98.1115 428.24 96.2863C430.429 94.4654 432.797 93.1702 435.353 92.4051C437.904 91.6443 440.384 91.6443 442.79 92.4051C445.205 93.1702 447.394 94.9441 449.356 97.7225C450.527 99.3211 451.497 100.74 452.262 101.98C453.023 103.224 453.604 104.54 454.006 105.929C454.417 107.31 454.656 109.058 454.724 111.178L455.374 131.747C455.374 132.546 455.408 133.641 455.477 135.03C455.554 136.423 455.502 137.791 455.323 139.133C455.139 140.48 454.699 141.557 454.006 142.365C453.322 143.164 452.249 143.416 450.792 143.134ZM436.891 118.394C437.768 118.394 438.678 117.906 439.627 116.923C440.572 115.932 441.427 114.837 442.192 113.64C442.953 112.435 443.448 111.503 443.679 110.854C444.406 109.246 444.5 107.823 443.953 106.579C443.406 105.34 442.252 105.083 440.499 105.81C439.336 106.254 438.208 107.28 437.114 108.887C436.019 110.486 435.25 111.871 434.806 113.042C434.438 114.205 434.293 115.376 434.361 116.547C434.438 117.71 435.284 118.325 436.891 118.394Z" fill="white"/>
<path d="M492.153 143.134C490.909 142.839 489.956 142.125 489.298 140.997C488.648 139.868 488.191 138.56 487.93 137.064C487.678 135.56 487.511 134.102 487.434 132.687C487.366 131.264 487.331 130.114 487.331 129.234C485.801 131.345 483.852 133.149 481.484 134.654C479.112 136.15 476.628 137.094 474.029 137.492C471.439 137.894 469.011 137.586 466.746 136.568C464.489 135.543 462.629 133.606 461.172 130.755C459.791 127.84 459.043 124.703 458.932 121.352C458.83 118 459.248 114.666 460.197 111.349C461.142 108.024 462.42 105.083 464.027 102.527C465.553 100.193 467.413 98.1115 469.601 96.2863C471.79 94.4654 474.158 93.1702 476.714 92.4051C479.266 91.6443 481.745 91.6443 484.151 92.4051C486.566 93.1702 488.755 94.9441 490.717 97.7225C491.888 99.3211 492.858 100.74 493.623 101.98C494.384 103.224 494.966 104.54 495.367 105.929C495.778 107.31 496.017 109.058 496.085 111.178L496.735 131.747C496.735 132.546 496.769 133.641 496.838 135.03C496.915 136.423 496.863 137.791 496.684 139.133C496.5 140.48 496.06 141.557 495.367 142.365C494.683 143.164 493.611 143.416 492.153 143.134ZM478.253 118.394C479.129 118.394 480.039 117.906 480.988 116.923C481.933 115.932 482.788 114.837 483.553 113.64C484.314 112.435 484.81 111.503 485.04 110.854C485.767 109.246 485.861 107.823 485.314 106.579C484.767 105.34 483.613 105.083 481.86 105.81C480.698 106.254 479.569 107.28 478.475 108.887C477.381 110.486 476.611 111.871 476.167 113.042C475.799 114.205 475.654 115.376 475.722 116.547C475.799 117.71 476.645 118.325 478.253 118.394Z" fill="white"/>
<path d="M537.447 156.368C536.421 157.163 535.45 157.436 534.54 157.188C533.625 156.936 532.805 156.389 532.078 155.547C531.347 154.7 530.731 153.846 530.231 152.982C529.5 151.443 529.022 149.793 528.795 148.041C528.577 146.297 528.393 144.51 528.248 142.689C528.111 140.868 527.803 139.133 527.325 137.492C526.846 135.85 525.948 134.376 524.64 133.063C523.328 134.226 521.811 135.521 520.092 136.945C518.383 138.372 516.575 139.646 514.672 140.774C512.779 141.903 510.954 142.617 509.201 142.912C507.457 143.198 505.888 142.792 504.499 141.698C503.119 140.603 502.097 138.492 501.439 135.354C500.49 131.127 500.071 126.66 500.174 121.95C500.285 117.244 500.708 112.52 501.439 107.776C502.165 103.035 502.896 98.5901 503.627 94.4396C504.14 91.5244 504.722 88.3314 505.371 84.8649C506.03 81.4026 507.167 78.4276 508.774 75.9399C510.013 74.0506 511.531 72.9563 513.322 72.6571C515.108 72.3622 516.767 72.7084 518.297 73.7001C519.823 74.6832 520.811 76.1921 521.255 78.231C521.768 80.7187 521.841 83.309 521.477 86.0104C521.11 88.7119 520.657 91.4133 520.11 94.1147C519.562 96.8076 519.212 99.4279 519.067 101.98C518.849 105.775 518.648 109.571 518.468 113.367C518.284 117.162 517.895 120.92 517.305 124.634C518.477 123.472 519.81 122.27 521.306 121.027C522.798 119.787 524.384 118.8 526.06 118.069C527.744 117.342 529.385 117.141 530.984 117.47C532.591 117.804 534.048 118.949 535.361 120.907C536.6 122.813 537.438 125.147 537.874 127.917C538.319 130.687 538.575 133.482 538.643 136.295C538.72 139.099 538.797 141.595 538.866 143.784C538.866 144.809 538.938 146.16 539.088 147.836C539.233 149.511 539.233 151.153 539.088 152.76C538.938 154.367 538.391 155.568 537.447 156.368Z" fill="white"/>
<path d="M553.866 142.912C551.31 142.253 549.232 140.958 547.625 139.031C546.018 137.094 544.791 134.756 543.949 132.02C543.115 129.285 542.624 126.425 542.479 123.437C542.329 120.441 542.47 117.573 542.906 114.837C543.351 112.102 544.009 109.789 544.889 107.896C546.497 104.467 548.591 101.621 551.181 99.3638C553.767 97.0984 556.918 95.5981 560.636 94.8671C562.902 94.4354 565.24 94.4568 567.646 94.9355C570.049 95.4057 572.126 96.3675 573.87 97.825C575.622 99.2869 576.614 101.364 576.845 104.066C577.64 106.04 577.674 107.665 576.948 108.939C576.217 110.217 575.157 111.037 573.767 111.401C572.387 111.768 571.019 111.567 569.664 110.802C568.317 110.029 567.39 108.622 566.877 106.579C565.565 107.015 564.09 108.075 562.449 109.759C560.807 111.435 559.239 113.41 557.747 115.675C556.251 117.932 555.139 120.172 554.413 122.394C553.682 124.617 553.609 126.566 554.191 128.242C554.84 130.067 555.618 130.978 556.533 130.978C557.443 130.978 558.414 130.49 559.44 129.507C560.465 128.515 561.431 127.472 562.346 126.378C563.257 125.284 564.005 124.557 564.586 124.19C566.043 122.151 567.279 121.039 568.296 120.856C569.322 120.676 570.126 121.095 570.707 122.121C571.288 123.138 571.652 124.429 571.801 126.002C571.946 127.575 571.912 129.165 571.699 130.772C571.481 132.371 571.074 133.64 570.485 134.585C569.536 136.342 568.134 137.949 566.279 139.407C564.419 140.869 562.397 141.946 560.209 142.638C558.02 143.331 555.905 143.425 553.866 142.912Z" fill="white"/>
<path d="M609.887 139.304C606.236 142.074 602.518 143.382 598.722 143.237C594.926 143.091 591.549 141.762 588.6 139.253C585.646 136.735 583.513 133.431 582.205 129.336C581.111 125.54 580.598 121.514 580.667 117.248C580.735 112.986 581.556 108.904 583.129 105.006C584.702 101.099 587.053 97.8251 590.19 95.192C592.297 93.448 594.811 92.2298 597.73 91.5331C600.645 90.8406 603.531 90.7295 606.382 91.2082C609.228 91.6784 611.635 92.824 613.597 94.6449C615.567 96.4701 616.627 99.0988 616.777 102.527C617.94 105.446 618.718 108.605 619.119 111.999C619.53 115.384 619.496 118.778 619.017 122.172C618.547 125.57 617.564 128.763 616.059 131.747C614.563 134.735 612.507 137.252 609.887 139.304ZM605.732 124.532C606.527 124.305 607.125 123.591 607.527 122.394C607.925 121.189 608.198 119.804 608.348 118.24C608.493 116.667 608.553 115.192 608.519 113.811C608.485 112.422 608.425 111.503 608.348 111.059C607.698 111.572 607.074 112.196 606.484 112.922C605.903 113.653 605.428 114.384 605.065 115.111C603.684 117.962 602.936 120.373 602.825 122.343C602.71 124.305 603.68 125.036 605.732 124.532Z" fill="white"/>
<path d="M626.514 95.8589C624.907 96.2265 623.847 96.0085 623.334 95.2092C622.83 94.4013 622.65 93.3754 622.787 92.1316C622.932 90.892 623.231 89.7635 623.676 88.7462C624.621 86.5577 625.711 84.4803 626.942 82.5056C628.181 80.535 630.045 79.4408 632.533 79.2228C634.354 79.0775 635.542 79.5904 636.089 80.7616C636.636 81.9242 636.777 83.275 636.516 84.8137C636.264 86.344 635.815 87.5793 635.166 88.5239C634.208 89.9174 632.943 91.3964 631.37 92.9694C629.806 94.5338 628.19 95.4955 626.514 95.8589Z" fill="white"/>
<path d="M654.191 148.486C652.148 149.212 649.887 149.67 647.404 149.854C644.929 150.033 642.813 149.324 641.06 147.716C639.316 146.118 638.385 144.442 638.273 142.69C638.171 140.937 638.808 139.185 640.188 137.441C641.283 136.051 642.633 134.923 644.24 134.055C645.848 133.179 647.472 132.32 649.113 131.474C650.755 130.632 652.264 129.687 653.644 128.635C655.033 127.575 656.059 126.169 656.722 124.412C657.372 122.805 657.457 121.454 656.978 120.36C656.508 119.266 655.803 118.287 654.858 117.419C653.909 116.543 652.96 115.633 652.003 114.684C650.404 112.931 649.259 110.956 648.566 108.768C647.869 106.579 647.814 104.284 648.395 101.877C649.271 98.0134 651.204 95.0213 654.191 92.9012C657.188 90.781 660.436 89.1739 663.937 88.0796C665.177 87.7163 666.638 87.3743 668.314 87.0537C669.99 86.7246 671.648 86.6006 673.289 86.6776C674.931 86.746 676.423 87.1307 677.769 87.8231C679.124 88.507 680.094 89.6868 680.676 91.3624C681.484 93.5509 681.449 95.3419 680.573 96.731C679.693 98.1245 678.342 99.2914 676.521 100.236C674.696 101.185 672.781 102.095 670.776 102.972C668.767 103.852 667.036 104.852 665.578 105.981C664.117 107.109 663.313 108.554 663.168 110.307C663.099 111.768 663.535 113.059 664.484 114.188C665.429 115.316 666.523 116.355 667.767 117.3C669.006 118.249 669.955 119.266 670.605 120.36C671.631 122.117 672.178 123.963 672.247 125.9C672.323 127.827 672.076 129.742 671.494 131.645C670.25 135.658 668.023 139.108 664.809 141.989C661.603 144.861 658.064 147.024 654.191 148.486Z" fill="white"/>
<path d="M388.128 437.408C388.649 432.51 392.103 430.056 398.489 430.056C401.908 430.056 404.447 430.321 406.114 430.843C407.777 431.368 408.935 432.287 409.585 433.595C410.243 434.908 410.637 436.07 410.765 437.083C410.902 438.088 410.97 439.592 410.97 441.597V487.556C410.97 489.573 410.902 491.091 410.765 492.104C410.637 493.108 410.269 494.267 409.654 495.575C408.431 497.857 405.435 498.994 400.66 498.994C395.894 498.994 392.697 498.404 391.068 497.216C389.448 496.032 388.508 494.305 388.247 492.035C385.007 496.677 379.604 498.994 372.039 498.994C364.469 498.994 357.441 495.536 350.957 488.616C344.481 481.7 341.246 473.668 341.246 464.525C341.246 455.374 344.503 447.359 351.025 440.486C357.544 433.612 364.704 430.176 372.5 430.176C375.475 430.176 378.185 430.706 380.639 431.766C383.088 432.817 384.793 433.801 385.751 434.724C386.717 435.639 387.512 436.532 388.128 437.408ZM364.225 464.73C364.225 467.616 365.358 470.219 367.627 472.544C369.906 474.861 372.663 476.015 375.903 476.015C379.151 476.015 381.844 474.835 383.99 472.476C386.131 470.108 387.204 467.5 387.204 464.662C387.204 461.815 386.17 459.165 384.11 456.711C382.058 454.262 379.297 453.035 375.834 453.035C372.381 453.035 369.581 454.262 367.439 456.711C365.294 459.165 364.225 461.837 364.225 464.73Z" fill="white"/>
<path d="M470.461 430.842C472.124 431.368 473.504 432.27 474.599 433.544C475.693 434.809 476.24 436.844 476.24 439.648C476.24 442.443 475.407 445.504 473.744 448.829C472.077 452.159 469.666 453.822 466.512 453.822C464.939 453.822 463.425 453.476 461.981 452.779C460.544 452.074 458.638 451.719 456.27 451.719C453.911 451.719 451.696 452.552 449.636 454.215C447.584 455.882 446.558 457.891 446.558 460.251V487.829C446.558 489.838 446.49 491.347 446.353 492.36C446.225 493.365 445.81 494.523 445.105 495.831C443.793 498.113 440.378 499.25 434.864 499.25C430.666 499.25 427.648 498.507 425.802 497.011C424.408 495.792 423.622 493.912 423.442 491.368C423.442 490.492 423.442 489.223 423.442 487.556V441.477C423.442 439.46 423.502 437.951 423.63 436.946C423.767 435.946 424.143 434.826 424.759 433.595C425.99 431.236 429.401 430.056 435 430.056C440.254 430.056 443.536 431.06 444.849 433.065C445.815 434.467 446.302 435.916 446.302 437.408C446.734 436.792 447.366 436.049 448.2 435.168C449.029 434.292 450.803 433.112 453.517 431.629C456.227 430.137 458.612 429.389 460.664 429.389C462.724 429.389 464.46 429.505 465.862 429.731C467.264 429.949 468.794 430.321 470.461 430.842Z" fill="white"/>
<path d="M525.601 453.292L517.069 452.762V470.885C517.069 473.245 517.436 474.955 518.18 476.015C518.932 477.066 520.334 477.588 522.386 477.588C524.446 477.588 526.028 477.656 527.122 477.793C528.217 477.921 529.371 478.331 530.593 479.024C532.611 480.165 533.619 483.102 533.619 487.829C533.619 493.347 532.393 496.716 529.943 497.934C528.631 498.549 527.468 498.926 526.455 499.062C525.451 499.191 523.985 499.25 522.061 499.25C512.953 499.25 506.032 497.194 501.305 493.078C496.586 488.966 494.226 482.007 494.226 472.202V452.762C492.559 453.027 490.764 453.155 488.84 453.155C486.913 453.155 485.31 452.416 484.036 450.932C482.771 449.441 482.138 446.897 482.138 443.307C482.138 439.716 482.352 437.113 482.788 435.493C483.232 433.877 483.848 432.719 484.634 432.022C486.036 430.885 487.785 430.313 489.883 430.313L494.226 430.843V417.318C494.226 415.301 494.286 413.813 494.414 412.856C494.551 411.89 494.966 410.834 495.662 409.693C496.799 407.504 500.176 406.41 505.784 406.41C511.734 406.41 515.278 408.03 516.419 411.266C516.851 412.668 517.069 414.903 517.069 417.968V430.843C520.92 430.492 523.831 430.313 525.806 430.313C527.776 430.313 529.264 430.381 530.268 430.518C531.268 430.646 532.427 431.056 533.739 431.749C536.017 432.89 537.159 436.263 537.159 441.871C537.159 447.389 535.979 450.757 533.619 451.975C532.307 452.591 531.144 452.967 530.131 453.104C529.127 453.232 527.618 453.292 525.601 453.292Z" fill="white"/>
<path d="M621.327 452.899H631.962C635.026 452.899 637.262 453.275 638.664 454.027C640.066 454.771 641.006 455.887 641.485 457.378C641.964 458.862 642.203 460.849 642.203 463.345C642.203 465.833 641.985 467.821 641.553 469.313C641.117 470.809 640.374 471.856 639.314 472.459C637.741 473.245 635.509 473.638 632.628 473.638H621.327V484.273C621.327 487.342 620.955 489.573 620.215 490.975C619.472 492.377 618.356 493.326 616.864 493.814C615.381 494.292 613.393 494.532 610.897 494.532C608.401 494.532 606.405 494.292 604.913 493.814C603.43 493.326 602.383 492.51 601.767 491.369C600.981 489.706 600.587 487.299 600.587 484.153V473.638H589.166C586.268 473.638 584.165 473.292 582.857 472.595C581.545 471.903 580.668 470.792 580.224 469.261C579.788 467.722 579.574 465.731 579.574 463.277C579.574 460.828 579.814 458.84 580.292 457.31C580.771 455.771 581.626 454.694 582.857 454.079C584.52 453.292 586.926 452.899 590.072 452.899H600.587V442.264C600.587 439.199 600.934 436.964 601.63 435.562C602.336 434.16 603.451 433.219 604.981 432.741C606.507 432.262 608.495 432.022 610.949 432.022C613.411 432.022 615.402 432.262 616.933 432.741C618.459 433.219 619.532 434.031 620.147 435.168C620.934 436.835 621.327 439.246 621.327 442.401V452.899Z" fill="white"/>
</svg>
